<svg xmlns="http://www.w3.org/2000/svg" fill="none" viewBox="0 0 256 203" height="203" width="256">
<path fill="#E5E5E5" d="M128 202.38C198.4 202.38 255.47 197.04 255.47 190.452C255.47 183.864 198.4 178.524 128 178.524C57.6003 178.524 0.530029 183.864 0.530029 190.452C0.530029 197.04 57.6003 202.38 128 202.38Z"></path>
<path stroke-linejoin="round" stroke-linecap="round" stroke-miterlimit="10" stroke-width="3" stroke="#4D4D61" d="M178.61 175.878C182.348 175.878 185.372 172.854 185.372 169.116V158.784C185.372 155.046 182.348 152.022 178.61 152.022C174.872 152.022 171.848 155.046 171.848 158.784V169.116C171.848 172.854 174.872 175.878 178.61 175.878Z"></path>
<path fill="#4D4D61" d="M178.61 175.878C182.348 175.878 185.372 172.854 185.372 169.116V158.784C185.372 155.046 182.348 152.022 178.61 152.022C174.872 152.022 171.848 155.046 171.848 158.784V169.116C171.848 172.854 174.872 175.878 178.61 175.878Z"></path>
<path fill="#56566D" d="M173.738 171.552V161.22C173.738 157.482 176.762 154.458 180.5 154.458C182.138 154.458 183.608 155.046 184.784 155.97C183.734 153.618 181.382 151.98 178.61 151.98C174.872 151.98 171.848 155.004 171.848 158.742V169.074C171.848 171.216 172.814 173.106 174.368 174.324C173.948 173.526 173.738 172.56 173.738 171.552Z"></path>
<path fill="#4D4D61" d="M178.526 154.752C180.591 154.752 182.264 154.15 182.264 153.408C182.264 152.666 180.591 152.064 178.526 152.064C176.462 152.064 174.788 152.666 174.788 153.408C174.788 154.15 176.462 154.752 178.526 154.752Z"></path>
<path fill="#4D4D61" d="M178.61 153.408C179.996 153.408 181.13 152.274 181.13 150.888V139.254C181.13 138.078 180.164 137.112 178.988 137.112H178.274C177.098 137.112 176.132 138.078 176.132 139.254V150.888C176.09 152.274 177.224 153.408 178.61 153.408Z"></path>
<path stroke-linejoin="round" stroke-linecap="round" stroke-miterlimit="10" stroke-width="3" stroke="#4D4D61" d="M178.61 153.408C179.996 153.408 181.13 152.274 181.13 150.888V139.212C181.13 138.036 180.206 137.112 179.03 137.112H178.232C177.056 137.112 176.132 138.036 176.132 139.212V150.888C176.09 152.274 177.224 153.408 178.61 153.408Z"></path>
<path fill="#E5E5E5" d="M125.69 50.508H118.508C117.164 50.508 116.072 49.416 116.072 48.072C116.072 46.728 117.164 45.636 118.508 45.636H121.532C123.926 45.636 125.858 43.704 125.858 41.31C125.858 38.916 123.926 36.984 121.532 36.984H112.04C111.662 36.984 111.326 36.648 111.326 36.27C111.326 35.892 111.662 35.556 112.04 35.556H113.09C113.51 35.556 113.846 35.22 113.846 34.8C113.846 34.38 113.51 34.044 113.09 34.044H105.656C105.152 34.044 104.732 34.464 104.732 34.968C104.732 35.472 105.152 35.892 105.656 35.892H108.554C109.394 35.892 110.108 36.606 110.108 37.446C110.108 38.286 109.394 39 108.554 39H107.168C105.194 39 103.556 40.596 103.556 42.612C103.556 44.628 105.152 46.224 107.168 46.224H110.108C110.78 46.224 111.326 46.77 111.326 47.442C111.326 48.114 110.78 48.66 110.108 48.66H108.974C107.672 48.66 106.622 49.71 106.622 51.012C106.622 52.314 107.672 53.364 108.974 53.364H124.304C125.144 53.364 125.858 54.078 125.816 54.918L125.774 56.094H128.84V53.658C128.756 51.894 127.37 50.508 125.69 50.508ZM115.736 41.394C115.736 41.016 116.03 40.68 116.45 40.68H120.608C120.986 40.68 121.322 40.974 121.322 41.394C121.322 41.772 121.028 42.108 120.608 42.108H116.45C116.03 42.066 115.736 41.772 115.736 41.394Z"></path>
<path fill="#E5E5E5" d="M103.43 33.876H102.17C101.708 33.876 101.33 33.498 101.33 33.036C101.33 32.574 101.708 32.196 102.17 32.196H103.43C103.892 32.196 104.27 32.574 104.27 33.036C104.27 33.498 103.892 33.876 103.43 33.876Z"></path>
<path fill="#4D4D61" d="M204.524 128.418L202.76 125.52C202.382 124.89 202.592 124.05 203.222 123.63C203.852 123.252 204.692 123.462 205.112 124.092L206.876 126.99C207.254 127.62 207.044 128.46 206.414 128.88C205.742 129.3 204.902 129.09 204.524 128.418Z"></path>
<path fill="#4D4D61" d="M207.884 127.326L205.028 125.52C204.398 125.1 204.188 124.26 204.608 123.63C205.028 123 205.868 122.79 206.498 123.21L209.354 125.016C209.984 125.436 210.194 126.276 209.774 126.906C209.396 127.536 208.556 127.704 207.884 127.326Z"></path>
<path fill="#4D4D61" d="M210.194 125.058L206.834 124.596C206.078 124.512 205.574 123.798 205.658 123.042C205.742 122.286 206.456 121.782 207.212 121.866L210.572 122.328C211.328 122.412 211.832 123.126 211.748 123.882C211.622 124.638 210.95 125.142 210.194 125.058Z"></path>
<path fill="#4D4D61" d="M211.37 122.286L208.01 122.748C207.254 122.874 206.582 122.328 206.456 121.572C206.33 120.816 206.876 120.144 207.632 120.018L210.992 119.556C211.748 119.43 212.42 119.976 212.546 120.732C212.63 121.488 212.126 122.16 211.37 122.286Z"></path>
<path fill="#4D4D61" d="M211.874 119.43L208.64 120.438C207.926 120.648 207.17 120.27 206.918 119.514C206.708 118.8 207.086 118.044 207.842 117.792L211.076 116.784C211.79 116.574 212.546 116.952 212.798 117.708C212.966 118.464 212.588 119.22 211.874 119.43Z"></path>
<path fill="#4D4D61" d="M211.958 116.49L208.808 117.708C208.094 117.96 207.296 117.624 207.044 116.91C206.792 116.196 207.128 115.398 207.842 115.146L210.992 113.928C211.706 113.676 212.504 114.012 212.756 114.726C213.008 115.44 212.672 116.196 211.958 116.49Z"></path>
<path fill="#4D4D61" d="M211.874 113.55L208.85 115.104C208.178 115.44 207.338 115.188 207.002 114.516C206.666 113.844 206.918 113.004 207.59 112.668L210.614 111.114C211.286 110.778 212.126 111.03 212.462 111.702C212.798 112.374 212.546 113.214 211.874 113.55Z"></path>
<path fill="#4D4D61" d="M211.622 111.576L208.598 113.13C207.926 113.466 207.086 113.214 206.75 112.542C206.414 111.87 206.666 111.03 207.338 110.694L210.362 109.14C211.034 108.804 211.874 109.056 212.21 109.728C212.546 110.4 212.294 111.24 211.622 111.576Z"></path>
<path stroke-linejoin="round" stroke-linecap="round" stroke-miterlimit="10" stroke-width="3" stroke="#4D4D61" d="M130.982 58.656C127.916 58.656 125.438 61.134 125.438 64.2C125.438 67.266 127.916 69.744 130.982 69.744C134.048 69.744 136.526 67.266 136.526 64.2C136.526 61.134 134.048 58.656 130.982 58.656ZM130.982 67.602C129.134 67.602 127.622 66.09 127.622 64.242C127.622 62.394 129.134 60.882 130.982 60.882C132.83 60.882 134.342 62.394 134.342 64.242C134.342 66.09 132.83 67.602 130.982 67.602Z"></path>
<path fill="#F7E3CB" d="M135.56 61.302H134.972H130.772C129.512 61.302 128.672 62.646 129.302 63.78C130.184 65.46 131.99 66.636 134.048 66.636H134.594V72.936H140.348V66.048C140.306 63.444 138.164 61.302 135.56 61.302Z"></path>
<path fill="#EDD6BC" d="M135.56 61.302H134.972H133.166C135.812 61.302 137.954 63.444 137.954 66.09V72.978H140.348V66.09C140.306 63.444 138.164 61.302 135.56 61.302Z"></path>
<path stroke-linejoin="round" stroke-linecap="round" stroke-miterlimit="10" stroke-width="3" stroke="#4D4D61" d="M135.56 61.302H134.972H130.142C129.26 61.302 128.672 62.142 128.924 62.94C129.638 65.082 131.654 66.636 134.006 66.636H134.552V72.936H140.306V66.048C140.306 63.444 138.164 61.302 135.56 61.302Z"></path>
<path fill="#FFD680" d="M119.39 72.138H127.454C129.218 72.138 130.688 70.71 130.688 68.904V56.346H116.156V68.904C116.156 70.668 117.584 72.138 119.39 72.138Z"></path>
<path stroke-linejoin="round" stroke-linecap="round" stroke-miterlimit="10" stroke-width="2" stroke="#4D4D61" d="M116.156 67.602H118.046C120.65 67.602 122.708 65.502 122.708 62.94V61.134L123.674 61.89"></path>
<path fill="#EABD6C" d="M126.446 56.304V68.862C126.446 70.626 125.018 72.096 123.212 72.096H127.412C129.176 72.096 130.646 70.668 130.646 68.862V56.304H126.446Z"></path>
<path stroke-linejoin="round" stroke-linecap="round" stroke-miterlimit="10" stroke-width="3" stroke="#4D4D61" d="M119.39 72.138H127.454C129.218 72.138 130.688 70.71 130.688 68.904V56.346H116.156V68.904C116.156 70.668 117.584 72.138 119.39 72.138Z"></path>
<path fill="#CA4361" d="M155.174 73.398L157.274 77.724L160.382 75.582L155.174 73.398Z"></path>
<path stroke-linejoin="round" stroke-linecap="round" stroke-miterlimit="10" stroke-width="2" stroke="#4D4D61" d="M155.174 73.398L157.274 77.724L160.382 75.582L155.174 73.398Z"></path>
<path fill="#F7E3CB" d="M162.311 172.148L168.055 168.581L144.101 130.012L138.357 133.579L162.311 172.148Z"></path>
<path stroke-linejoin="round" stroke-linecap="round" stroke-miterlimit="10" stroke-width="3" stroke="#4D4D61" d="M162.311 172.148L168.055 168.581L144.101 130.012L138.357 133.579L162.311 172.148Z"></path>
<path fill="#F7E3CB" d="M75.752 160.8L120.23 125.016L124.514 130.182L80.0359 166.008L75.752 160.8Z"></path>
<path fill="#EDD6BC" d="M80.624 156.894L84.698 162.27L88.73 159.12L84.656 153.618L80.624 156.894Z"></path>
<path stroke-linejoin="round" stroke-linecap="round" stroke-miterlimit="10" stroke-width="3" stroke="#4D4D61" d="M75.752 160.8L120.23 125.016L124.514 130.182L80.0359 166.008L75.752 160.8Z"></path>
<path stroke-linejoin="round" stroke-linecap="round" stroke-miterlimit="10" stroke-width="3" stroke="#4D4D61" d="M171.47 73.398L168.278 69.702C166.934 68.148 164.582 67.98 163.028 69.282C161.432 70.626 161.264 73.02 162.608 74.574L165.8 78.27C170.84 84.108 170.21 92.97 164.33 98.01C158.492 103.05 149.63 102.42 144.59 96.54C142.406 93.978 141.188 90.744 141.188 87.384V72.18H133.712V87.426C133.712 92.592 135.56 97.548 138.92 101.454C146.69 110.442 160.256 111.45 169.244 103.68C178.232 95.994 179.198 82.386 171.47 73.398Z"></path>
<path fill="#CA4361" d="M159.416 75.582C159.416 75.582 164.246 80.412 167.354 84.78C170.42 89.106 172.688 94.86 172.688 95.994C174.452 97.128 174.914 97.758 175.208 97.464C175.502 97.17 175.502 95.49 175.502 94.02C175.502 92.508 161.852 73.944 159.416 75.582Z"></path>
<path stroke-linejoin="round" stroke-linecap="round" stroke-miterlimit="10" stroke-width="2" stroke="#4D4D61" d="M159.416 75.582C159.416 75.582 164.246 80.412 167.354 84.78C170.42 89.106 172.688 94.86 172.688 95.994C174.452 97.128 174.914 97.758 175.208 97.464C175.502 97.17 175.502 95.49 175.502 94.02C175.502 92.508 161.852 73.944 159.416 75.582Z"></path>
<path fill="#595D5C" d="M174.116 173.106L141.314 183.06C140.726 183.228 140.096 182.892 139.886 182.304L139.844 182.22C139.676 181.632 140.012 181.002 140.6 180.792L173.402 170.838C173.99 170.67 174.62 171.006 174.83 171.594L174.872 171.678C175.04 172.308 174.704 172.938 174.116 173.106Z"></path>
<path stroke-linejoin="round" stroke-linecap="round" stroke-miterlimit="10" stroke-width="3" stroke="#4D4D61" d="M174.116 173.106L141.314 183.06C140.726 183.228 140.096 182.892 139.886 182.304L139.844 182.22C139.676 181.632 140.012 181.002 140.6 180.792L173.402 170.838C173.99 170.67 174.62 171.006 174.83 171.594L174.872 171.678C175.04 172.308 174.704 172.938 174.116 173.106Z"></path>
<path fill="#9B8462" d="M168.866 164.664L168.74 164.706C168.026 165.966 166.514 167.1 164.582 167.688C163.154 168.108 161.726 168.192 160.55 167.898C159.5 167.646 158.408 167.604 157.358 167.898L144.422 171.51C142.868 171.93 141.65 173.106 141.02 174.744L139.634 178.356C139.172 179.574 140.222 180.96 141.356 180.624L173.108 170.964L171.764 166.596C171.344 165.21 170.042 164.37 168.866 164.664Z"></path>
<path fill="#E1C885" d="M141.02 174.786L140.81 175.374C141.902 176.214 143.372 176.55 144.842 176.13L164.666 170.082C166.556 169.494 167.732 167.814 167.774 165.924C166.976 166.68 165.884 167.31 164.624 167.688C163.196 168.108 161.768 168.192 160.592 167.898C159.542 167.646 158.45 167.604 157.4 167.898L144.464 171.51C142.868 171.93 141.65 173.106 141.02 174.786Z"></path>
<path stroke-linejoin="round" stroke-linecap="round" stroke-miterlimit="10" stroke-width="3" stroke="#4D4D61" d="M168.866 164.664L168.74 164.706C168.026 165.966 166.514 167.1 164.582 167.688C163.154 168.108 161.726 168.192 160.55 167.898C159.5 167.646 158.408 167.604 157.358 167.898L144.422 171.51C142.868 171.93 141.65 173.106 141.02 174.744L139.634 178.356C139.172 179.574 140.222 180.96 141.356 180.624L173.108 170.964L171.764 166.596C171.344 165.21 170.042 164.37 168.866 164.664Z"></path>
<path stroke-linejoin="round" stroke-linecap="round" stroke-miterlimit="10" stroke-width="3" stroke="#4D4D61" d="M157.358 171.678L159.584 167.73L157.904 167.772L157.358 171.678Z"></path>
<path fill="#F7E3CB" d="M151.1 64.704C168.992 75.876 181.298 93.894 185.414 114.306H191.21C187.934 93.474 176.132 74.91 158.534 63.066"></path>
<path stroke-linejoin="round" stroke-linecap="round" stroke-miterlimit="10" stroke-width="3" stroke="#4D4D61" d="M186.002 136.062L190.664 133.038H167.102L171.764 136.062C176.132 138.876 181.676 138.876 186.002 136.062Z"></path>
<path fill="#4D4D61" d="M186.002 136.062L190.664 133.038H167.102L171.764 136.062C176.132 138.876 181.676 138.876 186.002 136.062Z"></path>
<path fill="#F7E3CB" d="M157.19 63.696C162.02 61.68 165.464 56.892 165.464 51.306V46.77H166.388C169.58 46.77 172.184 44.166 172.184 40.974C172.184 37.782 169.958 34.8 166.724 34.8L165.17 34.926L165.422 27.786C165.422 20.352 159.416 14.346 151.982 14.346C144.548 14.346 138.542 20.352 138.542 27.786V35.136H134.552C133.334 35.136 132.326 36.144 132.326 37.362C132.326 40.638 134.972 43.326 138.29 43.326H138.584V51.306C138.584 58.404 144.128 64.242 151.1 64.704"></path>
<path fill="#CA4361" d="M199.988 124.932H154.67C154.502 124.932 154.376 124.932 154.208 124.974C150.722 125.226 147.992 128.292 148.244 131.904C148.454 135.138 151.142 137.784 154.418 137.952C155.72 137.994 156.938 137.7 157.946 137.112C162.23 134.634 167.018 133.122 172.016 133.122H199.988C202.214 133.122 204.02 131.316 204.02 129.09C204.062 126.78 202.214 124.932 199.988 124.932Z"></path>
<path fill="#D35375" d="M155.216 134.13C154.964 130.518 157.694 127.494 161.18 127.2C161.306 127.2 161.474 127.158 161.642 127.158H203.642C202.97 125.814 201.626 124.932 200.03 124.932H154.67C154.502 124.932 154.376 124.932 154.208 124.974C150.722 125.226 147.992 128.292 148.244 131.904C148.454 135.138 151.142 137.784 154.418 137.952C155.174 137.994 155.888 137.91 156.56 137.7C155.804 136.65 155.3 135.432 155.216 134.13Z"></path>
<path stroke-linejoin="round" stroke-linecap="round" stroke-miterlimit="10" stroke-width="3" stroke="#4D4D61" d="M199.988 124.932H154.67C154.502 124.932 154.376 124.932 154.208 124.974C150.722 125.226 147.992 128.292 148.244 131.904C148.454 135.138 151.142 137.784 154.418 137.952C155.72 137.994 156.938 137.7 157.946 137.112C162.23 134.634 167.018 133.122 172.016 133.122H199.988C202.214 133.122 204.02 131.316 204.02 129.09C204.062 126.78 202.214 124.932 199.988 124.932Z"></path>
<path fill="#4D4D61" d="M194.772 179.483L195.916 176.594L183.421 171.645L182.277 174.534L194.772 179.483Z"></path>
<path fill="#4D4D61" d="M163.616 179.448L162.482 176.592L173.528 172.224C174.326 171.93 175.208 172.308 175.544 173.106C175.838 173.904 175.46 174.786 174.662 175.122L163.616 179.448Z"></path>
<path fill="#A3886C" d="M172.016 42.15L170.084 52.482C169.286 56.64 165.464 59.496 161.264 58.992H161.222L166.178 38.118L172.016 42.15Z"></path>
<path stroke-linejoin="round" stroke-linecap="round" stroke-miterlimit="10" stroke-width="3" stroke="#4D4D61" d="M172.016 42.15L170.084 52.482C169.286 56.64 165.464 59.496 161.264 58.992H161.222L166.178 38.118L172.016 42.15Z"></path>
<path fill="#EDD6BC" d="M138.542 44.04V43.074C138.542 41.73 137.366 40.722 136.064 40.974L134.51 41.52L138.542 44.04Z"></path>
<path fill="#EDD6BC" d="M166.178 35.136H165.422V27.954C162.188 32.952 157.148 39.546 157.148 39.546V48.114V48.576C157.148 55.17 151.814 60.504 145.22 60.504H142.154C144.59 63.108 148.076 64.746 151.94 64.746C159.374 64.746 165.38 58.74 165.38 51.306V46.77H166.304C169.622 46.77 172.268 43.998 172.1 40.68C172.016 37.53 169.286 35.136 166.178 35.136Z"></path>
<path stroke-linejoin="round" stroke-linecap="round" stroke-miterlimit="10" stroke-width="3" stroke="#4D4D61" d="M158.534 63.066C162.65 60.756 165.464 56.388 165.464 51.306V46.77H166.388C169.58 46.77 172.184 44.166 172.184 40.974C172.184 37.782 169.958 34.8 166.724 34.8L165.17 34.926L165.422 27.786C165.422 20.352 159.416 14.346 151.982 14.346C144.548 14.346 138.542 20.352 138.542 27.786V35.136H134.552C133.334 35.136 132.326 36.144 132.326 37.362C132.326 40.638 134.972 43.326 138.29 43.326H138.584V51.306C138.584 58.404 144.128 64.242 151.1 64.704"></path>
<path stroke-miterlimit="10" stroke-width="2" stroke="#4D4D61" d="M143.792 33.036C144.256 33.036 144.632 32.6599 144.632 32.196C144.632 31.7321 144.256 31.356 143.792 31.356C143.328 31.356 142.952 31.7321 142.952 32.196C142.952 32.6599 143.328 33.036 143.792 33.036Z"></path>
<path stroke-linejoin="round" stroke-linecap="round" stroke-miterlimit="10" stroke-width="2" stroke="#4D4D61" d="M151.73 40.764V47.568C151.73 51.894 148.202 55.422 143.876 55.422C140.936 55.422 138.584 53.028 138.584 50.13"></path>
<path stroke-linejoin="round" stroke-linecap="round" stroke-miterlimit="10" stroke-width="2" stroke="#4D4D61" d="M150.974 40.386L152.486 41.184"></path>
<path fill="#B0977A" d="M145.514 24.3L144.002 27.24L149.924 30.852L150.302 28.332L145.514 24.3Z"></path>
<path fill="#A3886C" d="M145.514 24.3L145.052 25.224C146.69 25.686 147.908 27.114 147.908 28.878C147.908 29.13 147.866 29.382 147.824 29.592L149.924 30.894L150.302 28.374L145.514 24.3Z"></path>
<path stroke-linejoin="round" stroke-linecap="round" stroke-miterlimit="10" stroke-width="2" stroke="#4D4D61" d="M145.514 24.3L144.002 27.24L149.924 30.852L150.302 28.332L145.514 24.3Z"></path>
<path fill="#B0977A" d="M174.368 20.394C175.796 21.276 176.426 21.528 177.812 21.528C175.418 18.168 174.83 11.574 171.26 7.416C169.664 5.526 167.858 3.46801 164.414 2.41801C158.492 0.654008 152.906 2.628 152.192 3.006C147.866 5.316 143.54 10.608 144.8 15.144C144.926 15.648 144.506 15.984 144.8 16.362C149.546 12.75 157.022 13.842 160.55 18.714C163.364 22.578 162.608 28.878 159.878 32.49C159.08 33.288 158.744 35.976 157.568 38.664L160.718 36.732C163.952 34.758 168.824 35.346 171.512 38.034C171.974 38.832 172.268 39.672 172.394 40.512C172.73 40.302 173.15 40.05 173.654 39.63C176.762 37.026 177.308 33.078 177.434 32.07C178.358 26.106 175.04 21.15 174.368 20.394Z"></path>
<path fill="#A3886C" d="M177.854 21.57C175.46 18.21 174.872 11.616 171.302 7.45802C169.916 5.82002 168.362 4.01403 165.674 2.92203C168.614 6.32403 170.42 10.776 170.42 15.648C170.42 23.292 166.01 29.886 159.584 33.078C158.996 34.212 158.618 36.48 157.61 38.748L160.76 36.816C163.994 34.842 168.866 35.43 171.554 38.118C172.016 38.916 172.31 39.756 172.436 40.596C172.772 40.386 173.192 40.134 173.696 39.714C176.804 37.11 177.35 33.162 177.476 32.154C178.316 26.148 174.956 21.15 174.326 20.436C175.838 21.318 176.468 21.57 177.854 21.57Z"></path>
<path stroke-linejoin="round" stroke-linecap="round" stroke-miterlimit="10" stroke-width="3" stroke="#4D4D61" d="M174.368 20.394C175.796 21.276 176.426 21.528 177.812 21.528C175.418 18.168 174.83 11.574 171.26 7.41601C169.664 5.52601 167.858 3.46801 164.414 2.41801C158.492 0.654007 152.906 2.62801 152.192 3.00601C147.866 5.31601 143.54 10.608 144.8 15.144C144.926 15.648 144.506 15.984 144.8 16.362C149.546 12.75 157.022 13.842 160.55 18.714C163.364 22.578 162.608 28.878 159.878 32.49C159.08 33.288 158.744 35.976 157.568 38.664L162.314 35.808C165.464 33.876 169.622 34.884 171.512 38.076C171.974 38.874 172.268 39.714 172.394 40.554C172.73 40.344 173.15 40.092 173.654 39.672C176.762 37.068 177.308 33.12 177.434 32.112C178.358 26.106 175.04 21.15 174.368 20.394Z"></path>
<path stroke-linejoin="round" stroke-linecap="round" stroke-miterlimit="10" stroke-width="2" stroke="#4D4D61" d="M163.7 38.958L168.698 42.528"></path>
<path stroke-linejoin="round" stroke-linecap="round" stroke-miterlimit="10" stroke-width="2" stroke="#4D4D61" d="M168.068 38.118L164.498 43.116"></path>
<path stroke-linejoin="round" stroke-linecap="round" stroke-miterlimit="10" stroke-width="2" stroke="#4D4D61" d="M139.508 41.73L139.97 42.15C139.97 42.15 140.81 41.268 141.902 41.73C141.608 41.142 139.172 40.848 139.508 41.73Z"></path>
<path stroke-linejoin="round" stroke-linecap="round" stroke-miterlimit="10" stroke-width="3" stroke="#4D4D61" d="M151.1 64.704C168.992 75.876 181.298 93.894 185.414 114.306H191.21C187.934 93.474 176.132 74.91 158.534 63.066"></path>
<path fill="#475C80" d="M129.958 123.565L155.69 164.988L164.288 159.646L138.557 118.223L129.958 123.565Z"></path>
<path fill="#6987AF" d="M135.056 132.072L153.578 161.598C154.754 160.842 158.324 162.48 157.568 161.304L140.642 135.978C139.886 134.802 136.652 131.736 135.434 132.492L135.056 132.072Z" opacity="0.57"></path>
<path fill="#4D4D61" d="M134.258 130.476C134.258 130.476 142.196 127.998 144.926 128.502C142.154 123.168 141.146 122.118 141.146 122.118L130.52 125.562L134.258 130.476Z"></path>
<path stroke-linejoin="round" stroke-linecap="round" stroke-miterlimit="10" stroke-width="3" stroke="#4D4D61" d="M129.958 123.565L155.69 164.988L164.288 159.646L138.557 118.223L129.958 123.565Z"></path>
<path fill="#475C80" d="M114.602 126.864L82.22 153.576L88.646 161.388L118.214 136.986C127.706 129.132 139.676 124.848 151.982 124.848H188.648C191.42 124.848 193.688 122.58 193.688 119.808V114.768H148.328C136.022 114.726 124.094 119.01 114.602 126.864Z"></path>
<path fill="#6987AF" d="M84.2361 151.896L87.0921 155.886L120.902 125.604L119.18 123.462C117.584 124.512 116.072 125.646 114.602 126.864L84.2361 151.896Z" opacity="0.57"></path>
<path fill="#6987AF" d="M141.02 117.33L178.862 117.834C180.836 117.834 187.472 116.658 187.472 114.684H148.412C144.38 114.684 131.696 116.658 127.034 119.178C125.816 119.85 135.35 117.33 141.02 117.33Z" opacity="0.57"></path>
<path stroke-linejoin="round" stroke-linecap="round" stroke-miterlimit="10" stroke-width="3" stroke="#4D4D61" d="M114.602 126.864L82.22 153.576L88.646 161.388L118.214 136.986C127.706 129.132 139.676 124.848 151.982 124.848H188.648C191.42 124.848 193.688 122.58 193.688 119.808V114.768H148.328C136.022 114.726 124.094 119.01 114.602 126.864Z"></path>
<path fill="#E5E5E5" d="M193.73 114.306C190.832 95.406 181.046 78.144 166.472 65.922L157.274 72.306C170.336 82.974 179.366 97.842 182.81 114.306H193.73Z"></path>
<path fill="white" d="M182.81 114.306H187.43C183.86 96.918 174.452 81.168 160.886 69.786L157.274 72.306C170.336 82.932 179.366 97.842 182.81 114.306Z"></path>
<path stroke-linejoin="round" stroke-linecap="round" stroke-miterlimit="10" stroke-width="3" stroke="#4D4D61" d="M193.73 114.306C190.832 95.406 181.046 78.144 166.472 65.922L157.274 72.306C170.336 82.974 179.366 97.842 182.81 114.306H193.73Z"></path>
<path fill="#B0977A" d="M126.614 85.158C126.614 85.158 123.128 88.056 123.422 82.092C123.548 79.362 127.118 79.446 127.118 79.446L127.496 82.008L126.614 85.158Z"></path>
<path stroke-linejoin="round" stroke-linecap="round" stroke-miterlimit="10" stroke-width="3" stroke="#4D4D61" d="M126.614 85.158C126.614 85.158 123.128 88.056 123.422 82.092C123.548 79.362 127.118 79.446 127.118 79.446L127.496 82.008L126.614 85.158Z"></path>
<path fill="#EDD6BC" d="M136.904 78.69C135.224 81.042 132.62 82.554 129.722 82.848C127.538 83.058 127.58 78.018 124.178 83.982C122.834 84.696 121.238 83.268 120.524 82.428C120.314 82.176 120.314 81.798 120.566 81.588C121.196 81.042 122.372 79.74 122.918 77.472C123.296 75.288 124.01 73.692 125.732 74.616C127.244 75.414 136.652 74.28 136.904 78.69Z"></path>
<path stroke-linejoin="round" stroke-linecap="round" stroke-miterlimit="10" stroke-width="3" stroke="#4D4D61" d="M136.904 78.69C135.224 81.042 132.62 82.554 129.722 82.848C127.538 83.058 127.58 78.018 124.178 83.982C122.834 84.696 121.28 83.268 120.524 82.47C120.272 82.218 120.314 81.798 120.566 81.588C121.238 81 122.372 79.74 122.876 77.472C123.254 75.288 123.968 73.692 125.69 74.616C127.244 75.414 136.652 74.28 136.904 78.69Z"></path>
<path fill="#EDD6BC" d="M138.122 83.646C138.122 83.646 136.904 80.118 133.628 78.438C133.292 79.74 131.612 81.042 129.974 81.504L130.898 83.1C131.612 84.402 131.024 86.04 129.638 86.502C128.42 86.922 127.118 86.334 126.614 85.158L124.556 78.9C124.556 78.9 128.588 77.43 129.806 76.17C130.646 75.33 132.62 72.18 132.62 72.18C132.62 72.18 136.274 73.062 138.752 75.54C140.81 77.598 142.658 81.084 142.658 81.084L138.122 83.646Z"></path>
<path fill="#F7E3CB" d="M129.05 86.334L126.992 80.076C126.992 80.076 131.024 78.606 132.242 77.346C133.082 76.506 135.056 73.356 135.056 73.356C135.056 73.356 135.602 73.482 136.442 73.818C134.468 72.642 132.578 72.18 132.578 72.18C132.578 72.18 130.604 75.33 129.764 76.17C128.504 77.388 124.514 78.9 124.514 78.9L126.572 85.158C126.992 86.208 128.084 86.796 129.176 86.586C129.134 86.502 129.092 86.418 129.05 86.334Z"></path>
<path fill="#F7E3CB" d="M136.064 79.614C136.022 79.782 135.938 79.95 135.854 80.118C137.45 81.798 138.122 83.646 138.122 83.646L139.55 82.848C138.836 81.756 137.702 80.454 136.064 79.614Z"></path>
<path stroke-linejoin="round" stroke-linecap="round" stroke-miterlimit="10" stroke-width="3" stroke="#4D4D61" d="M138.122 83.646C138.122 83.646 136.904 80.118 133.628 78.438C133.292 79.74 131.612 81.042 129.974 81.504L130.898 83.1C131.612 84.402 131.024 86.04 129.638 86.502C128.42 86.922 127.118 86.334 126.614 85.158L124.556 78.9C124.556 78.9 128.588 77.43 129.806 76.17C130.646 75.33 132.62 72.18 132.62 72.18C132.62 72.18 136.274 73.062 138.752 75.54C140.81 77.598 142.658 81.084 142.658 81.084L138.122 83.646Z"></path>
<path stroke-linejoin="round" stroke-linecap="round" stroke-miterlimit="10" stroke-width="2" stroke="#4D4D61" d="M126.614 83.982L127.874 83.604C127.874 83.604 128.504 84.234 128.504 84.822C128.504 85.41 127.034 85.872 127.034 85.872C127.034 85.872 126.068 84.486 126.614 83.982Z"></path>
<path stroke-linejoin="round" stroke-linecap="round" stroke-miterlimit="10" stroke-width="2" stroke="#4D4D61" d="M121.7 80.496L122.708 81.336C122.708 81.336 122.54 82.218 122.036 82.512C121.574 82.806 120.356 81.882 120.356 81.882C120.356 81.882 120.986 80.328 121.7 80.496Z"></path>
<path fill="#E5E5E5" d="M143.372 80.16L154.082 100.698C155.636 103.68 158.198 105.99 161.348 107.25C168.53 110.106 176.678 106.578 179.534 99.396C182.39 92.214 178.862 84.066 171.68 81.21L167.144 79.404C165.212 78.648 164.288 76.422 165.044 74.532C165.8 72.642 167.984 71.718 169.916 72.474L174.452 74.28C185.498 78.648 190.874 91.164 186.506 102.168C182.138 113.214 169.622 118.59 158.618 114.222C153.83 112.332 149.882 108.762 147.488 104.184L136.946 83.982L143.372 80.16Z"></path>
<path fill="#E5E5E5" d="M146.27 85.704L143.372 80.16L136.904 83.982L139.76 89.442L146.27 85.704Z"></path>
<path fill="white" d="M136.904 83.982L147.446 104.184C147.824 104.898 148.244 105.612 148.706 106.284C148.454 104.814 149.966 107.964 149.966 107.964L139.214 82.554L136.904 83.982Z"></path>
<path stroke-linejoin="round" stroke-linecap="round" stroke-miterlimit="10" stroke-width="3" stroke="#4D4D61" d="M146.27 85.704L143.372 80.16L136.904 83.982L139.76 89.442L146.27 85.704Z"></path>
<path fill="white" d="M165.59 76.926C166.346 75.036 168.53 74.112 170.462 74.868L174.998 76.674C181.466 79.236 186.002 84.612 187.766 90.87C186.59 83.646 181.76 77.178 174.494 74.28L169.958 72.474C168.026 71.718 165.884 72.642 165.086 74.532C164.624 75.666 164.75 76.926 165.38 77.892C165.38 77.556 165.464 77.262 165.59 76.926Z"></path>
<path fill="white" d="M143.918 81.21L152.696 101.244C154.922 105.276 157.652 108.426 160.76 109.644C167.942 112.5 177.14 108.972 179.996 101.79C181.214 98.682 181.256 95.406 180.332 92.466C180.626 94.734 180.374 97.128 179.45 99.396C176.594 106.578 168.446 110.106 161.264 107.25C158.156 105.99 155.552 103.68 153.998 100.698L143.372 80.16"></path>
<path stroke-linejoin="round" stroke-linecap="round" stroke-miterlimit="10" stroke-width="3" stroke="#4D4D61" d="M143.372 80.16L154.082 100.698C155.636 103.68 158.198 105.99 161.348 107.25C168.53 110.106 176.678 106.578 179.534 99.396C182.39 92.214 178.862 84.066 171.68 81.21L167.144 79.404C165.212 78.648 164.288 76.422 165.044 74.532C165.8 72.642 167.984 71.718 169.916 72.474L174.452 74.28C185.498 78.648 190.874 91.164 186.506 102.168C182.138 113.214 169.622 118.59 158.618 114.222C153.83 112.332 149.882 108.762 147.488 104.184L136.946 83.982L143.372 80.16Z"></path>
<path fill="#E5E5E5" d="M166.64 64.746L159.878 76.464L152.234 71.424L163.532 63.486L166.64 64.746Z"></path>
<path fill="white" d="M160.97 65.292L152.234 71.424L155.678 73.692C155.72 73.65 155.762 73.65 155.804 73.608C159.626 71.508 161.81 67.938 160.97 65.292Z"></path>
<path stroke-linejoin="round" stroke-linecap="round" stroke-miterlimit="10" stroke-width="3" stroke="#4D4D61" d="M166.64 64.746L159.878 76.464L152.234 71.424L163.532 63.486L166.64 64.746Z"></path>
<path fill="#56566D" d="M157.316 187.848C161.862 187.848 165.548 184.162 165.548 179.616C165.548 175.07 161.862 171.384 157.316 171.384C152.77 171.384 149.084 175.07 149.084 179.616C149.084 184.162 152.77 187.848 157.316 187.848Z"></path>
<path fill="#66667C" d="M152.57 183.732C152.57 179.196 156.266 175.5 160.802 175.5C162.314 175.5 163.742 175.92 164.96 176.634C163.742 173.568 160.76 171.384 157.274 171.384C152.738 171.384 149.042 175.08 149.042 179.616C149.042 182.64 150.68 185.286 153.116 186.714C152.78 185.79 152.57 184.782 152.57 183.732Z" opacity="0.44"></path>
<path stroke-linejoin="round" stroke-linecap="round" stroke-miterlimit="10" stroke-width="3" stroke="#4D4D61" d="M157.316 187.848C161.862 187.848 165.548 184.162 165.548 179.616C165.548 175.07 161.862 171.384 157.316 171.384C152.77 171.384 149.084 175.07 149.084 179.616C149.084 184.162 152.77 187.848 157.316 187.848Z"></path>
<path stroke-linejoin="round" stroke-linecap="round" stroke-miterlimit="10" stroke-width="3" stroke="#4D4D61" d="M157.316 183.69C159.566 183.69 161.39 181.866 161.39 179.616C161.39 177.366 159.566 175.542 157.316 175.542C155.066 175.542 153.242 177.366 153.242 179.616C153.242 181.866 155.066 183.69 157.316 183.69Z"></path>
<path fill="#4D4D61" d="M157.316 183.69C159.566 183.69 161.39 181.866 161.39 179.616C161.39 177.366 159.566 175.542 157.316 175.542C155.066 175.542 153.242 177.366 153.242 179.616C153.242 181.866 155.066 183.69 157.316 183.69Z"></path>
<path fill="#CA4361" d="M166.892 175.542C165.506 175.542 164.246 174.954 163.28 173.946C161.768 172.35 159.668 171.384 157.316 171.384C155.006 171.384 152.948 172.308 151.436 173.862C150.386 174.912 149.042 175.542 147.572 175.542H147.53C149.126 171.72 152.906 169.032 157.316 169.032C161.726 169.032 165.506 171.72 167.102 175.542H166.892Z"></path>
<path fill="#D35375" d="M154.754 169.326C151.478 170.124 148.832 172.476 147.53 175.542H147.572C149 175.542 150.344 174.996 151.31 173.988C152.15 173.106 153.872 172.392 155.258 171.972C156.476 171.594 156.56 169.83 155.342 169.41C155.216 169.326 154.964 169.284 154.754 169.326Z"></path>
<path stroke-linejoin="round" stroke-linecap="round" stroke-miterlimit="10" stroke-width="3" stroke="#4D4D61" d="M166.892 175.542C165.506 175.542 164.246 174.954 163.28 173.946C161.768 172.35 159.668 171.384 157.316 171.384C155.006 171.384 152.948 172.308 151.436 173.862C150.386 174.912 149.042 175.542 147.572 175.542H147.53C149.126 171.72 152.906 169.032 157.316 169.032C161.726 169.032 165.506 171.72 167.102 175.542H166.892Z"></path>
<path fill="#56566D" d="M201.458 187.848C206.004 187.848 209.69 184.162 209.69 179.616C209.69 175.07 206.004 171.384 201.458 171.384C196.912 171.384 193.226 175.07 193.226 179.616C193.226 184.162 196.912 187.848 201.458 187.848Z"></path>
<path fill="#66667C" d="M197.006 183.732C197.006 179.196 200.702 175.5 205.238 175.5C206.75 175.5 208.178 175.92 209.396 176.634C208.178 173.568 205.196 171.384 201.71 171.384C197.174 171.384 193.478 175.08 193.478 179.616C193.478 182.64 195.116 185.286 197.552 186.714C197.216 185.79 197.006 184.782 197.006 183.732Z" opacity="0.44"></path>
<path stroke-linejoin="round" stroke-linecap="round" stroke-miterlimit="10" stroke-width="3" stroke="#4D4D61" d="M201.458 187.848C206.004 187.848 209.69 184.162 209.69 179.616C209.69 175.07 206.004 171.384 201.458 171.384C196.912 171.384 193.226 175.07 193.226 179.616C193.226 184.162 196.912 187.848 201.458 187.848Z"></path>
<path stroke-linejoin="round" stroke-linecap="round" stroke-miterlimit="10" stroke-width="3" stroke="#4D4D61" d="M52.9879 111.744H47.2759V190.158H52.9879V111.744Z"></path>
<path fill="#4D4D61" d="M52.9879 111.744H47.2759V190.158H52.9879V111.744Z"></path>
<path stroke-linejoin="round" stroke-linecap="round" stroke-miterlimit="10" stroke-width="3" stroke="#4D4D61" d="M201.458 183.69C203.708 183.69 205.532 181.866 205.532 179.616C205.532 177.366 203.708 175.542 201.458 175.542C199.208 175.542 197.384 177.366 197.384 179.616C197.384 181.866 199.208 183.69 201.458 183.69Z"></path>
<path fill="#CA4361" d="M211.034 175.542C209.648 175.542 208.388 174.954 207.422 173.946C205.91 172.35 203.81 171.384 201.458 171.384C199.148 171.384 197.09 172.308 195.578 173.862C194.528 174.912 193.184 175.542 191.714 175.542H191.672C193.268 171.72 197.048 169.032 201.458 169.032C205.868 169.032 209.648 171.72 211.244 175.542H211.034Z"></path>
<path fill="#4D4D61" d="M201.458 183.69C203.708 183.69 205.532 181.866 205.532 179.616C205.532 177.366 203.708 175.542 201.458 175.542C199.208 175.542 197.384 177.366 197.384 179.616C197.384 181.866 199.208 183.69 201.458 183.69Z"></path>
<path stroke-linejoin="round" stroke-linecap="round" stroke-miterlimit="10" stroke-width="3" stroke="#4D4D61" d="M211.034 175.542C209.648 175.542 208.388 174.954 207.422 173.946C205.91 172.35 203.81 171.384 201.458 171.384C199.148 171.384 197.09 172.308 195.578 173.862C194.528 174.912 193.184 175.542 191.714 175.542H191.672C193.268 171.72 197.048 169.032 201.458 169.032C205.868 169.032 209.648 171.72 211.244 175.542H211.034Z"></path>
<path fill="#B98C78" d="M143.876 103.932H20.5641C19.5561 103.932 18.7581 103.134 18.7581 102.126V98.724C18.7581 97.716 19.5561 96.918 20.5641 96.918H143.876C144.884 96.918 145.682 97.716 145.682 98.724V102.126C145.682 103.134 144.884 103.932 143.876 103.932Z"></path>
<path fill="#C9A08F" d="M65.7979 100.782C47.8639 100.782 31.7359 102 20.6899 103.932H110.948C99.8599 102 83.7319 100.782 65.7979 100.782Z"></path>
<path stroke-linejoin="round" stroke-linecap="round" stroke-miterlimit="10" stroke-width="3" stroke="#4D4D61" d="M143.876 103.932H20.5641C19.5561 103.932 18.7581 103.134 18.7581 102.126V98.724C18.7581 97.716 19.5561 96.918 20.5641 96.918H143.876C144.884 96.918 145.682 97.716 145.682 98.724V102.126C145.682 103.134 144.884 103.932 143.876 103.932Z"></path>
<path stroke-linejoin="round" stroke-linecap="round" stroke-miterlimit="10" stroke-width="3" stroke="#4D4D61" d="M130.562 112.92H33.8358C31.3578 112.92 29.3418 110.904 29.3418 108.426C29.3418 105.948 31.3578 103.932 33.8358 103.932H130.562C133.04 103.932 135.056 105.948 135.056 108.426C135.056 110.904 133.04 112.92 130.562 112.92Z"></path>
<path fill="#4D4D61" d="M130.562 112.92H33.8358C31.3578 112.92 29.3418 110.904 29.3418 108.426C29.3418 105.948 31.3578 103.932 33.8358 103.932H130.562C133.04 103.932 135.056 105.948 135.056 108.426C135.056 110.904 133.04 112.92 130.562 112.92Z"></path>
<path fill="#575770" d="M69.62 110.82C55.802 110.82 43.958 111.702 38.75 112.92H100.49C95.282 111.66 83.438 110.82 69.62 110.82Z"></path>
<path fill="#83ABBA" d="M71.3418 90.072C72.8496 90.072 74.0718 88.8497 74.0718 87.342C74.0718 85.8343 72.8496 84.612 71.3418 84.612C69.8341 84.612 68.6118 85.8343 68.6118 87.342C68.6118 88.8497 69.8341 90.072 71.3418 90.072Z"></path>
<path stroke-linejoin="round" stroke-linecap="round" stroke-miterlimit="10" stroke-width="3" stroke="#4D4D61" d="M71.3418 90.072C72.8496 90.072 74.0718 88.8497 74.0718 87.342C74.0718 85.8343 72.8496 84.612 71.3418 84.612C69.8341 84.612 68.6118 85.8343 68.6118 87.342C68.6118 88.8497 69.8341 90.072 71.3418 90.072Z"></path>
<path fill="#92B4C3" d="M70.544 86.25L70.754 86.208L60.464 29.046L60.254 29.088C58.28 29.466 56.936 31.356 57.314 33.33L66.302 83.31C66.638 85.284 68.528 86.586 70.544 86.25Z"></path>
<path fill="#ACD3E5" d="M66.134 82.428C66.134 75.918 65.546 68.862 64.244 61.596C62.9 53.994 60.926 46.854 58.574 40.554L66.134 82.428Z"></path>
<path stroke-linejoin="round" stroke-linecap="round" stroke-miterlimit="10" stroke-width="3" stroke="#4D4D61" d="M70.544 86.25L70.754 86.208L60.464 29.046L60.254 29.088C58.28 29.466 56.936 31.356 57.314 33.33L66.302 83.31C66.638 85.284 68.528 86.586 70.544 86.25Z"></path>
<path stroke-linejoin="round" stroke-linecap="round" stroke-miterlimit="10" stroke-width="3" stroke="#4D4D61" d="M120.104 112.08H114.392V190.494H120.104V112.08Z"></path>
<path fill="#4D4D61" d="M120.104 112.08H114.392V190.494H120.104V112.08Z"></path>
<path fill="#92B4C3" d="M76.6339 93.978H129.134C131.696 93.978 133.796 91.878 133.796 89.316V87.342H71.9719V89.316C71.9719 91.878 74.0719 93.978 76.6339 93.978Z"></path>
<path fill="#83ABBA" d="M129.134 92.508H76.6339C74.0719 92.508 71.9719 90.408 71.9719 87.846V89.316C71.9719 91.878 74.0719 93.978 76.6339 93.978H129.134C131.696 93.978 133.796 91.878 133.796 89.316V87.846C133.796 90.408 131.696 92.508 129.134 92.508Z"></path>
<path stroke-linejoin="round" stroke-linecap="round" stroke-miterlimit="10" stroke-width="3" stroke="#4D4D61" d="M76.6339 93.978H129.134C131.696 93.978 133.796 91.878 133.796 89.316V87.342H71.9719V89.316C71.9719 91.878 74.0719 93.978 76.6339 93.978Z"></path>
<path stroke-linejoin="round" stroke-linecap="round" stroke-miterlimit="10" stroke-width="3" stroke="#4D4D61" d="M79.7406 96.8841L126.025 96.8841L126.025 93.9441L79.7406 93.9441L79.7406 96.8841Z"></path>
<path fill="#4D4D61" d="M79.7406 96.8841L126.025 96.8841L126.025 93.9441L79.7406 93.9441L79.7406 96.8841Z"></path>
<path stroke-linejoin="round" stroke-linecap="round" stroke-miterlimit="10" stroke-width="2" stroke="#4D4D61" d="M102.967 90.6018L107.125 90.6018L107.125 89.2157L102.967 89.2157L102.967 90.6018Z"></path>
<path stroke-linejoin="round" stroke-linecap="round" stroke-miterlimit="10" stroke-width="2" stroke="#4D4D61" d="M97.0415 90.6018L101.199 90.6018L101.199 89.2157L97.0415 89.2157L97.0415 90.6018Z"></path>
<path stroke-linejoin="round" stroke-linecap="round" stroke-miterlimit="10" stroke-width="2" stroke="#4D4D61" d="M77.39 90.66C77.8075 90.66 78.146 90.3215 78.146 89.904C78.146 89.4865 77.8075 89.148 77.39 89.148C76.9725 89.148 76.634 89.4865 76.634 89.904C76.634 90.3215 76.9725 90.66 77.39 90.66Z"></path>
<path fill="#CA4361" d="M225.44 65.796C226.07 60.966 222.626 56.556 217.754 56.094C213.092 55.632 208.976 59.076 208.346 63.738L202.592 106.536C202.34 108.468 203.684 110.232 205.616 110.484L210.698 111.156C212.63 111.408 214.394 110.064 214.646 108.132L215.486 101.832C217.04 90.282 219.896 78.858 224.768 68.274C225.062 67.518 225.314 66.678 225.44 65.796Z"></path>
<path fill="#D35375" d="M213.764 101.832L212.924 108.132C212.714 109.602 211.622 110.778 210.236 111.072L210.698 111.114C212.63 111.366 214.394 110.022 214.646 108.09L215.486 101.79C217.04 90.24 219.896 78.816 224.768 68.232C225.104 67.476 225.356 66.636 225.482 65.796C226.112 60.966 222.668 56.556 217.796 56.094C217.25 56.052 216.662 56.052 216.158 56.094C221.03 56.598 224.474 61.008 223.844 65.796C223.718 66.678 223.466 67.476 223.13 68.232"></path>
<path fill="#D35375" d="M208.346 63.738L203.894 96.918C207.758 85.872 211.496 73.986 211.496 64.746C211.496 58.488 219.098 56.388 221.198 58.488C219.812 55.926 215.402 55.674 213.008 57.06C210.404 58.53 208.598 61.68 208.346 63.738Z"></path>
<path stroke-linejoin="round" stroke-linecap="round" stroke-miterlimit="10" stroke-width="3" stroke="#4D4D61" d="M225.44 65.796C226.07 60.966 222.626 56.556 217.754 56.094C213.092 55.632 208.976 59.076 208.346 63.738L202.592 106.536C202.34 108.468 203.684 110.232 205.616 110.484L210.698 111.156C212.63 111.408 214.394 110.064 214.646 108.132L215.486 101.832C217.04 90.282 219.896 78.858 224.768 68.274C225.062 67.518 225.314 66.678 225.44 65.796Z"></path>
<path fill="#595D5C" d="M81.38 174.45L52.568 155.886C52.022 155.55 51.896 154.836 52.232 154.332L52.274 154.248C52.61 153.702 53.324 153.576 53.828 153.912L82.64 172.476C83.186 172.812 83.312 173.526 82.976 174.03L82.934 174.114C82.64 174.618 81.926 174.786 81.38 174.45Z"></path>
<path stroke-linejoin="round" stroke-linecap="round" stroke-miterlimit="10" stroke-width="3" stroke="#4D4D61" d="M81.38 174.45L52.568 155.886C52.022 155.55 51.896 154.836 52.232 154.332L52.274 154.248C52.61 153.702 53.324 153.576 53.828 153.912L82.64 172.476C83.186 172.812 83.312 173.526 82.976 174.03L82.934 174.114C82.64 174.618 81.926 174.786 81.38 174.45Z"></path>
<path fill="#9B8462" d="M84.446 165L84.32 164.916C82.892 165.168 81.044 164.748 79.364 163.656C78.104 162.858 77.138 161.766 76.592 160.716C76.088 159.75 75.416 158.868 74.534 158.28L63.404 150.762C62.102 149.88 60.38 149.712 58.742 150.258L55.13 151.518C53.912 151.938 53.534 153.66 54.5 154.29L82.388 172.266L84.866 168.402C85.622 167.184 85.454 165.672 84.446 165Z"></path>
<path fill="#E1C885" d="M58.7421 150.258L58.1541 150.468C58.1961 151.854 58.91 153.198 60.17 154.038L77.6 165.252C79.238 166.302 81.338 166.134 82.766 164.958C81.674 164.832 80.498 164.412 79.364 163.698C78.104 162.9 77.138 161.808 76.592 160.758C76.088 159.792 75.416 158.91 74.534 158.322L63.4041 150.804C62.1021 149.838 60.38 149.67 58.7421 150.258Z" opacity="0.74"></path>
<path stroke-linejoin="round" stroke-linecap="round" stroke-miterlimit="10" stroke-width="3" stroke="#4D4D61" d="M84.446 165L84.32 164.916C82.892 165.168 81.044 164.748 79.364 163.656C78.104 162.858 77.138 161.766 76.592 160.716C76.088 159.75 75.416 158.868 74.534 158.28L63.404 150.762C62.102 149.88 60.38 149.712 58.742 150.258L55.13 151.518C53.912 151.938 53.534 153.66 54.5 154.29L82.388 172.266L84.866 168.402C85.622 167.184 85.454 165.672 84.446 165Z"></path>
<path stroke-linejoin="round" stroke-linecap="round" stroke-miterlimit="10" stroke-width="3" stroke="#4D4D61" d="M71.6782 160.716L76.0882 159.876L74.9542 158.616L71.6782 160.716Z"></path>
<path fill="#92B4C3" d="M83.7741 148.998L80.2881 152.442L88.8141 163.152L93.0141 159.666L83.7741 148.998Z"></path>
<path fill="#9EC0CC" d="M83.5221 149.25L80.2881 152.442L84.9081 158.238C85.6641 157.146 86.1261 155.844 86.1261 154.458C86.1261 152.358 85.1181 150.468 83.5221 149.25Z"></path>
<path stroke-linejoin="round" stroke-linecap="round" stroke-miterlimit="10" stroke-width="3" stroke="#4D4D61" d="M83.7741 148.998L80.2881 152.442L88.8141 163.152L93.0141 159.666L83.7741 148.998Z"></path>
<path fill="#92B4C3" d="M152.57 162.69L155.216 166.848L167.48 160.716L164.96 155.886L152.57 162.69Z"></path>
<path fill="#92B4C3" d="M152.57 162.69L155.216 166.848L167.48 160.716L164.96 155.886L152.57 162.69Z"></path>
<path fill="#9EC0CC" d="M157.316 163.194C157.316 162.27 156.812 161.472 155.972 160.8L152.57 162.69L154.88 166.302C156.35 165.588 157.316 164.454 157.316 163.194Z"></path>
<path stroke-linejoin="round" stroke-linecap="round" stroke-miterlimit="10" stroke-width="3" stroke="#4D4D61" d="M152.57 162.69L155.216 166.848L167.48 160.716L164.96 155.886L152.57 162.69Z"></path>
<path stroke-linejoin="round" stroke-linecap="round" stroke-miterlimit="10" stroke-width="2" stroke="#4D4D61" d="M118.34 62.604C118.526 62.604 118.676 62.3596 118.676 62.058C118.676 61.7565 118.526 61.512 118.34 61.512C118.154 61.512 118.004 61.7565 118.004 62.058C118.004 62.3596 118.154 62.604 118.34 62.604Z"></path>
<path fill="#4D4D61" d="M83.774 91.962H81.674C81.128 91.962 80.666 91.5 80.666 90.954V89.694C80.666 89.148 81.128 88.686 81.674 88.686H83.774C84.32 88.686 84.782 89.148 84.782 89.694V90.954C84.782 91.5 84.32 91.962 83.774 91.962Z"></path>
</svg>
