<svg xmlns="http://www.w3.org/2000/svg" fill="none" viewBox="0 0 272 167" height="167" width="272">
<path fill="#E6E6E6" d="M15.457 5.5471C16.9904 5.5471 18.2335 4.3054 18.2335 2.77369C18.2335 1.24197 16.9904 0.000274658 15.457 0.000274658C13.9236 0.000274658 12.6805 1.24197 12.6805 2.77369C12.6805 4.3054 13.9236 5.5471 15.457 5.5471Z"></path>
<path fill="#E6E6E6" d="M29.5116 5.5471C31.045 5.5471 32.288 4.3054 32.288 2.77369C32.288 1.24197 31.045 0.000274658 29.5116 0.000274658C27.9782 0.000274658 26.7351 1.24197 26.7351 2.77369C26.7351 4.3054 27.9782 5.5471 29.5116 5.5471Z"></path>
<path fill="#E6E6E6" d="M43.5661 5.5471C45.0995 5.5471 46.3425 4.3054 46.3425 2.77369C46.3425 1.24197 45.0995 0.000274658 43.5661 0.000274658C42.0327 0.000274658 40.7896 1.24197 40.7896 2.77369C40.7896 4.3054 42.0327 5.5471 43.5661 5.5471Z"></path>
<path fill="#E6E6E6" d="M57.6206 5.5471C59.154 5.5471 60.3971 4.3054 60.3971 2.77369C60.3971 1.24197 59.154 0.000274658 57.6206 0.000274658C56.0872 0.000274658 54.8441 1.24197 54.8441 2.77369C54.8441 4.3054 56.0872 5.5471 57.6206 5.5471Z"></path>
<path fill="#E6E6E6" d="M71.6751 5.5471C73.2085 5.5471 74.4516 4.3054 74.4516 2.77369C74.4516 1.24197 73.2085 0.000274658 71.6751 0.000274658C70.1417 0.000274658 68.8986 1.24197 68.8986 2.77369C68.8986 4.3054 70.1417 5.5471 71.6751 5.5471Z"></path>
<path fill="#E6E6E6" d="M85.7296 5.5471C87.263 5.5471 88.5061 4.3054 88.5061 2.77369C88.5061 1.24197 87.263 0.000274658 85.7296 0.000274658C84.1962 0.000274658 82.9532 1.24197 82.9532 2.77369C82.9532 4.3054 84.1962 5.5471 85.7296 5.5471Z"></path>
<path fill="#E6E6E6" d="M99.7841 5.5471C101.318 5.5471 102.561 4.3054 102.561 2.77369C102.561 1.24197 101.318 0.000274658 99.7841 0.000274658C98.2507 0.000274658 97.0077 1.24197 97.0077 2.77369C97.0077 4.3054 98.2507 5.5471 99.7841 5.5471Z"></path>
<path fill="#E6E6E6" d="M113.839 5.5471C115.372 5.5471 116.615 4.3054 116.615 2.77369C116.615 1.24197 115.372 0.000274658 113.839 0.000274658C112.305 0.000274658 111.062 1.24197 111.062 2.77369C111.062 4.3054 112.305 5.5471 113.839 5.5471Z"></path>
<path fill="#E6E6E6" d="M127.893 5.5471C129.427 5.5471 130.67 4.3054 130.67 2.77369C130.67 1.24197 129.427 0.000274658 127.893 0.000274658C126.36 0.000274658 125.117 1.24197 125.117 2.77369C125.117 4.3054 126.36 5.5471 127.893 5.5471Z"></path>
<path fill="#E6E6E6" d="M141.948 5.5471C143.481 5.5471 144.724 4.3054 144.724 2.77369C144.724 1.24197 143.481 0.000274658 141.948 0.000274658C140.414 0.000274658 139.171 1.24197 139.171 2.77369C139.171 4.3054 140.414 5.5471 141.948 5.5471Z"></path>
<path fill="#E6E6E6" d="M15.457 19.7623C16.9904 19.7623 18.2335 18.5206 18.2335 16.9889C18.2335 15.4572 16.9904 14.2155 15.457 14.2155C13.9236 14.2155 12.6805 15.4572 12.6805 16.9889C12.6805 18.5206 13.9236 19.7623 15.457 19.7623Z"></path>
<path fill="#E6E6E6" d="M29.5116 19.7623C31.045 19.7623 32.288 18.5206 32.288 16.9889C32.288 15.4572 31.045 14.2155 29.5116 14.2155C27.9782 14.2155 26.7351 15.4572 26.7351 16.9889C26.7351 18.5206 27.9782 19.7623 29.5116 19.7623Z"></path>
<path fill="#E6E6E6" d="M43.5661 19.7623C45.0995 19.7623 46.3425 18.5206 46.3425 16.9889C46.3425 15.4572 45.0995 14.2155 43.5661 14.2155C42.0327 14.2155 40.7896 15.4572 40.7896 16.9889C40.7896 18.5206 42.0327 19.7623 43.5661 19.7623Z"></path>
<path fill="#6C82FF" d="M57.6206 19.7623C59.154 19.7623 60.3971 18.5206 60.3971 16.9889C60.3971 15.4572 59.154 14.2155 57.6206 14.2155C56.0872 14.2155 54.8441 15.4572 54.8441 16.9889C54.8441 18.5206 56.0872 19.7623 57.6206 19.7623Z"></path>
<path fill="#E6E6E6" d="M71.6751 19.7623C73.2085 19.7623 74.4516 18.5206 74.4516 16.9889C74.4516 15.4572 73.2085 14.2155 71.6751 14.2155C70.1417 14.2155 68.8986 15.4572 68.8986 16.9889C68.8986 18.5206 70.1417 19.7623 71.6751 19.7623Z"></path>
<path fill="#E6E6E6" d="M85.7296 19.7623C87.263 19.7623 88.5061 18.5206 88.5061 16.9889C88.5061 15.4572 87.263 14.2155 85.7296 14.2155C84.1962 14.2155 82.9532 15.4572 82.9532 16.9889C82.9532 18.5206 84.1962 19.7623 85.7296 19.7623Z"></path>
<path fill="#E6E6E6" d="M99.7841 19.7623C101.318 19.7623 102.561 18.5206 102.561 16.9889C102.561 15.4572 101.318 14.2155 99.7841 14.2155C98.2507 14.2155 97.0077 15.4572 97.0077 16.9889C97.0077 18.5206 98.2507 19.7623 99.7841 19.7623Z"></path>
<path fill="#E6E6E6" d="M113.839 19.7623C115.372 19.7623 116.615 18.5206 116.615 16.9889C116.615 15.4572 115.372 14.2155 113.839 14.2155C112.305 14.2155 111.062 15.4572 111.062 16.9889C111.062 18.5206 112.305 19.7623 113.839 19.7623Z"></path>
<path fill="#E6E6E6" d="M127.893 19.7623C129.427 19.7623 130.67 18.5206 130.67 16.9889C130.67 15.4572 129.427 14.2155 127.893 14.2155C126.36 14.2155 125.117 15.4572 125.117 16.9889C125.117 18.5206 126.36 19.7623 127.893 19.7623Z"></path>
<path fill="#E6E6E6" d="M141.948 19.7623C143.481 19.7623 144.724 18.5206 144.724 16.9889C144.724 15.4572 143.481 14.2155 141.948 14.2155C140.414 14.2155 139.171 15.4572 139.171 16.9889C139.171 18.5206 140.414 19.7623 141.948 19.7623Z"></path>
<path fill="#E6E6E6" d="M15.457 33.9775C16.9904 33.9775 18.2335 32.7358 18.2335 31.2041C18.2335 29.6723 16.9904 28.4306 15.457 28.4306C13.9236 28.4306 12.6805 29.6723 12.6805 31.2041C12.6805 32.7358 13.9236 33.9775 15.457 33.9775Z"></path>
<path fill="#E6E6E6" d="M29.5116 33.9775C31.045 33.9775 32.288 32.7358 32.288 31.2041C32.288 29.6723 31.045 28.4306 29.5116 28.4306C27.9782 28.4306 26.7351 29.6723 26.7351 31.2041C26.7351 32.7358 27.9782 33.9775 29.5116 33.9775Z"></path>
<path fill="#E6E6E6" d="M43.5661 33.9775C45.0995 33.9775 46.3425 32.7358 46.3425 31.2041C46.3425 29.6723 45.0995 28.4306 43.5661 28.4306C42.0327 28.4306 40.7896 29.6723 40.7896 31.2041C40.7896 32.7358 42.0327 33.9775 43.5661 33.9775Z"></path>
<path fill="#E6E6E6" d="M57.6206 33.9775C59.154 33.9775 60.3971 32.7358 60.3971 31.2041C60.3971 29.6723 59.154 28.4306 57.6206 28.4306C56.0872 28.4306 54.8441 29.6723 54.8441 31.2041C54.8441 32.7358 56.0872 33.9775 57.6206 33.9775Z"></path>
<path fill="#E6E6E6" d="M71.6751 33.9775C73.2085 33.9775 74.4516 32.7358 74.4516 31.2041C74.4516 29.6723 73.2085 28.4306 71.6751 28.4306C70.1417 28.4306 68.8986 29.6723 68.8986 31.2041C68.8986 32.7358 70.1417 33.9775 71.6751 33.9775Z"></path>
<path fill="#E6E6E6" d="M85.7296 33.9775C87.263 33.9775 88.5061 32.7358 88.5061 31.2041C88.5061 29.6723 87.263 28.4306 85.7296 28.4306C84.1962 28.4306 82.9532 29.6723 82.9532 31.2041C82.9532 32.7358 84.1962 33.9775 85.7296 33.9775Z"></path>
<path fill="#E6E6E6" d="M99.7841 33.9775C101.318 33.9775 102.561 32.7358 102.561 31.2041C102.561 29.6723 101.318 28.4306 99.7841 28.4306C98.2507 28.4306 97.0077 29.6723 97.0077 31.2041C97.0077 32.7358 98.2507 33.9775 99.7841 33.9775Z"></path>
<path fill="#E6E6E6" d="M113.839 33.9775C115.372 33.9775 116.615 32.7358 116.615 31.2041C116.615 29.6723 115.372 28.4306 113.839 28.4306C112.305 28.4306 111.062 29.6723 111.062 31.2041C111.062 32.7358 112.305 33.9775 113.839 33.9775Z"></path>
<path fill="#E6E6E6" d="M127.893 33.9775C129.427 33.9775 130.67 32.7358 130.67 31.2041C130.67 29.6723 129.427 28.4306 127.893 28.4306C126.36 28.4306 125.117 29.6723 125.117 31.2041C125.117 32.7358 126.36 33.9775 127.893 33.9775Z"></path>
<path fill="#E6E6E6" d="M141.948 33.9775C143.481 33.9775 144.724 32.7358 144.724 31.2041C144.724 29.6723 143.481 28.4306 141.948 28.4306C140.414 28.4306 139.171 29.6723 139.171 31.2041C139.171 32.7358 140.414 33.9775 141.948 33.9775Z"></path>
<path fill="#E6E6E6" d="M15.457 48.1927C16.9904 48.1927 18.2335 46.951 18.2335 45.4193C18.2335 43.8875 16.9904 42.6458 15.457 42.6458C13.9236 42.6458 12.6805 43.8875 12.6805 45.4193C12.6805 46.951 13.9236 48.1927 15.457 48.1927Z"></path>
<path fill="#E6E6E6" d="M29.5116 48.1927C31.045 48.1927 32.288 46.951 32.288 45.4193C32.288 43.8875 31.045 42.6458 29.5116 42.6458C27.9782 42.6458 26.7351 43.8875 26.7351 45.4193C26.7351 46.951 27.9782 48.1927 29.5116 48.1927Z"></path>
<path fill="#E6E6E6" d="M43.5661 48.1927C45.0995 48.1927 46.3425 46.951 46.3425 45.4193C46.3425 43.8875 45.0995 42.6458 43.5661 42.6458C42.0327 42.6458 40.7896 43.8875 40.7896 45.4193C40.7896 46.951 42.0327 48.1927 43.5661 48.1927Z"></path>
<path fill="#E6E6E6" d="M57.6206 48.1927C59.154 48.1927 60.3971 46.951 60.3971 45.4193C60.3971 43.8875 59.154 42.6458 57.6206 42.6458C56.0872 42.6458 54.8441 43.8875 54.8441 45.4193C54.8441 46.951 56.0872 48.1927 57.6206 48.1927Z"></path>
<path fill="#E6E6E6" d="M71.6751 48.1927C73.2085 48.1927 74.4516 46.951 74.4516 45.4193C74.4516 43.8875 73.2085 42.6458 71.6751 42.6458C70.1417 42.6458 68.8986 43.8875 68.8986 45.4193C68.8986 46.951 70.1417 48.1927 71.6751 48.1927Z"></path>
<path fill="#E6E6E6" d="M85.7296 48.1927C87.263 48.1927 88.5061 46.951 88.5061 45.4193C88.5061 43.8875 87.263 42.6458 85.7296 42.6458C84.1962 42.6458 82.9532 43.8875 82.9532 45.4193C82.9532 46.951 84.1962 48.1927 85.7296 48.1927Z"></path>
<path fill="#E6E6E6" d="M99.7841 48.1927C101.318 48.1927 102.561 46.951 102.561 45.4193C102.561 43.8875 101.318 42.6458 99.7841 42.6458C98.2507 42.6458 97.0077 43.8875 97.0077 45.4193C97.0077 46.951 98.2507 48.1927 99.7841 48.1927Z"></path>
<path fill="#E6E6E6" d="M113.839 48.1927C115.372 48.1927 116.615 46.951 116.615 45.4193C116.615 43.8875 115.372 42.6458 113.839 42.6458C112.305 42.6458 111.062 43.8875 111.062 45.4193C111.062 46.951 112.305 48.1927 113.839 48.1927Z"></path>
<path fill="#E6E6E6" d="M127.893 48.1927C129.427 48.1927 130.67 46.951 130.67 45.4193C130.67 43.8875 129.427 42.6458 127.893 42.6458C126.36 42.6458 125.117 43.8875 125.117 45.4193C125.117 46.951 126.36 48.1927 127.893 48.1927Z"></path>
<path fill="#E6E6E6" d="M141.948 48.1927C143.481 48.1927 144.724 46.951 144.724 45.4193C144.724 43.8875 143.481 42.6458 141.948 42.6458C140.414 42.6458 139.171 43.8875 139.171 45.4193C139.171 46.951 140.414 48.1927 141.948 48.1927Z"></path>
<path fill="#E6E6E6" d="M15.457 62.4078C16.9904 62.4078 18.2335 61.1661 18.2335 59.6344C18.2335 58.1027 16.9904 56.861 15.457 56.861C13.9236 56.861 12.6805 58.1027 12.6805 59.6344C12.6805 61.1661 13.9236 62.4078 15.457 62.4078Z"></path>
<path fill="#6C82FF" d="M29.5116 62.4078C31.045 62.4078 32.288 61.1661 32.288 59.6344C32.288 58.1027 31.045 56.861 29.5116 56.861C27.9782 56.861 26.7351 58.1027 26.7351 59.6344C26.7351 61.1661 27.9782 62.4078 29.5116 62.4078Z"></path>
<path fill="#E6E6E6" d="M43.5661 62.4078C45.0995 62.4078 46.3425 61.1661 46.3425 59.6344C46.3425 58.1027 45.0995 56.861 43.5661 56.861C42.0327 56.861 40.7896 58.1027 40.7896 59.6344C40.7896 61.1661 42.0327 62.4078 43.5661 62.4078Z"></path>
<path fill="#E6E6E6" d="M57.6206 62.4078C59.154 62.4078 60.3971 61.1661 60.3971 59.6344C60.3971 58.1027 59.154 56.861 57.6206 56.861C56.0872 56.861 54.8441 58.1027 54.8441 59.6344C54.8441 61.1661 56.0872 62.4078 57.6206 62.4078Z"></path>
<path fill="#E6E6E6" d="M71.6751 62.4078C73.2085 62.4078 74.4516 61.1661 74.4516 59.6344C74.4516 58.1027 73.2085 56.861 71.6751 56.861C70.1417 56.861 68.8986 58.1027 68.8986 59.6344C68.8986 61.1661 70.1417 62.4078 71.6751 62.4078Z"></path>
<path fill="#E6E6E6" d="M85.7296 62.4078C87.263 62.4078 88.5061 61.1661 88.5061 59.6344C88.5061 58.1027 87.263 56.861 85.7296 56.861C84.1962 56.861 82.9532 58.1027 82.9532 59.6344C82.9532 61.1661 84.1962 62.4078 85.7296 62.4078Z"></path>
<path fill="#E6E6E6" d="M99.7841 62.4078C101.318 62.4078 102.561 61.1661 102.561 59.6344C102.561 58.1027 101.318 56.861 99.7841 56.861C98.2507 56.861 97.0077 58.1027 97.0077 59.6344C97.0077 61.1661 98.2507 62.4078 99.7841 62.4078Z"></path>
<path fill="#E6E6E6" d="M113.839 62.4078C115.372 62.4078 116.615 61.1661 116.615 59.6344C116.615 58.1027 115.372 56.861 113.839 56.861C112.305 56.861 111.062 58.1027 111.062 59.6344C111.062 61.1661 112.305 62.4078 113.839 62.4078Z"></path>
<path fill="#E6E6E6" d="M127.893 62.4078C129.427 62.4078 130.67 61.1661 130.67 59.6344C130.67 58.1027 129.427 56.861 127.893 56.861C126.36 56.861 125.117 58.1027 125.117 59.6344C125.117 61.1661 126.36 62.4078 127.893 62.4078Z"></path>
<path fill="#E6E6E6" d="M141.948 62.4078C143.481 62.4078 144.724 61.1661 144.724 59.6344C144.724 58.1027 143.481 56.861 141.948 56.861C140.414 56.861 139.171 58.1027 139.171 59.6344C139.171 61.1661 140.414 62.4078 141.948 62.4078Z"></path>
<path fill="#E6E6E6" d="M15.457 76.623C16.9904 76.623 18.2335 75.3813 18.2335 73.8496C18.2335 72.3179 16.9904 71.0762 15.457 71.0762C13.9236 71.0762 12.6805 72.3179 12.6805 73.8496C12.6805 75.3813 13.9236 76.623 15.457 76.623Z"></path>
<path fill="#E6E6E6" d="M29.5116 76.623C31.045 76.623 32.288 75.3813 32.288 73.8496C32.288 72.3179 31.045 71.0762 29.5116 71.0762C27.9782 71.0762 26.7351 72.3179 26.7351 73.8496C26.7351 75.3813 27.9782 76.623 29.5116 76.623Z"></path>
<path fill="#E6E6E6" d="M43.5661 76.623C45.0995 76.623 46.3425 75.3813 46.3425 73.8496C46.3425 72.3179 45.0995 71.0762 43.5661 71.0762C42.0327 71.0762 40.7896 72.3179 40.7896 73.8496C40.7896 75.3813 42.0327 76.623 43.5661 76.623Z"></path>
<path fill="#E6E6E6" d="M57.6206 76.623C59.154 76.623 60.3971 75.3813 60.3971 73.8496C60.3971 72.3179 59.154 71.0762 57.6206 71.0762C56.0872 71.0762 54.8441 72.3179 54.8441 73.8496C54.8441 75.3813 56.0872 76.623 57.6206 76.623Z"></path>
<path fill="#E6E6E6" d="M71.6751 76.623C73.2085 76.623 74.4516 75.3813 74.4516 73.8496C74.4516 72.3179 73.2085 71.0762 71.6751 71.0762C70.1417 71.0762 68.8986 72.3179 68.8986 73.8496C68.8986 75.3813 70.1417 76.623 71.6751 76.623Z"></path>
<path fill="#E6E6E6" d="M85.7296 76.623C87.263 76.623 88.5061 75.3813 88.5061 73.8496C88.5061 72.3179 87.263 71.0762 85.7296 71.0762C84.1962 71.0762 82.9532 72.3179 82.9532 73.8496C82.9532 75.3813 84.1962 76.623 85.7296 76.623Z"></path>
<path fill="#E6E6E6" d="M99.7841 76.623C101.318 76.623 102.561 75.3813 102.561 73.8496C102.561 72.3179 101.318 71.0762 99.7841 71.0762C98.2507 71.0762 97.0077 72.3179 97.0077 73.8496C97.0077 75.3813 98.2507 76.623 99.7841 76.623Z"></path>
<path fill="#E6E6E6" d="M113.839 76.623C115.372 76.623 116.615 75.3813 116.615 73.8496C116.615 72.3179 115.372 71.0762 113.839 71.0762C112.305 71.0762 111.062 72.3179 111.062 73.8496C111.062 75.3813 112.305 76.623 113.839 76.623Z"></path>
<path fill="#E6E6E6" d="M127.893 76.623C129.427 76.623 130.67 75.3813 130.67 73.8496C130.67 72.3179 129.427 71.0762 127.893 71.0762C126.36 71.0762 125.117 72.3179 125.117 73.8496C125.117 75.3813 126.36 76.623 127.893 76.623Z"></path>
<path fill="#E6E6E6" d="M141.948 76.623C143.481 76.623 144.724 75.3813 144.724 73.8496C144.724 72.3179 143.481 71.0762 141.948 71.0762C140.414 71.0762 139.171 72.3179 139.171 73.8496C139.171 75.3813 140.414 76.623 141.948 76.623Z"></path>
<path fill="#E6E6E6" d="M15.457 90.8382C16.9904 90.8382 18.2335 89.5965 18.2335 88.0648C18.2335 86.5331 16.9904 85.2914 15.457 85.2914C13.9236 85.2914 12.6805 86.5331 12.6805 88.0648C12.6805 89.5965 13.9236 90.8382 15.457 90.8382Z"></path>
<path fill="#E6E6E6" d="M29.5116 90.8382C31.045 90.8382 32.288 89.5965 32.288 88.0648C32.288 86.5331 31.045 85.2914 29.5116 85.2914C27.9782 85.2914 26.7351 86.5331 26.7351 88.0648C26.7351 89.5965 27.9782 90.8382 29.5116 90.8382Z"></path>
<path fill="#6C82FF" d="M43.5661 90.8382C45.0995 90.8382 46.3425 89.5965 46.3425 88.0648C46.3425 86.5331 45.0995 85.2914 43.5661 85.2914C42.0327 85.2914 40.7896 86.5331 40.7896 88.0648C40.7896 89.5965 42.0327 90.8382 43.5661 90.8382Z"></path>
<path fill="#E6E6E6" d="M57.6206 90.8382C59.154 90.8382 60.3971 89.5965 60.3971 88.0648C60.3971 86.5331 59.154 85.2914 57.6206 85.2914C56.0872 85.2914 54.8441 86.5331 54.8441 88.0648C54.8441 89.5965 56.0872 90.8382 57.6206 90.8382Z"></path>
<path fill="#E6E6E6" d="M71.6751 90.8382C73.2085 90.8382 74.4516 89.5965 74.4516 88.0648C74.4516 86.5331 73.2085 85.2914 71.6751 85.2914C70.1417 85.2914 68.8986 86.5331 68.8986 88.0648C68.8986 89.5965 70.1417 90.8382 71.6751 90.8382Z"></path>
<path fill="#E6E6E6" d="M85.7296 90.8382C87.263 90.8382 88.5061 89.5965 88.5061 88.0648C88.5061 86.5331 87.263 85.2914 85.7296 85.2914C84.1962 85.2914 82.9532 86.5331 82.9532 88.0648C82.9532 89.5965 84.1962 90.8382 85.7296 90.8382Z"></path>
<path fill="#E6E6E6" d="M99.7841 90.8382C101.318 90.8382 102.561 89.5965 102.561 88.0648C102.561 86.5331 101.318 85.2914 99.7841 85.2914C98.2507 85.2914 97.0077 86.5331 97.0077 88.0648C97.0077 89.5965 98.2507 90.8382 99.7841 90.8382Z"></path>
<path fill="#E6E6E6" d="M113.839 90.8382C115.372 90.8382 116.615 89.5965 116.615 88.0648C116.615 86.5331 115.372 85.2914 113.839 85.2914C112.305 85.2914 111.062 86.5331 111.062 88.0648C111.062 89.5965 112.305 90.8382 113.839 90.8382Z"></path>
<path fill="#E6E6E6" d="M127.893 90.8382C129.427 90.8382 130.67 89.5965 130.67 88.0648C130.67 86.5331 129.427 85.2914 127.893 85.2914C126.36 85.2914 125.117 86.5331 125.117 88.0648C125.117 89.5965 126.36 90.8382 127.893 90.8382Z"></path>
<path fill="#E6E6E6" d="M141.948 90.8382C143.481 90.8382 144.724 89.5965 144.724 88.0648C144.724 86.5331 143.481 85.2914 141.948 85.2914C140.414 85.2914 139.171 86.5331 139.171 88.0648C139.171 89.5965 140.414 90.8382 141.948 90.8382Z"></path>
<path fill="#E6E6E6" d="M15.457 105.053C16.9904 105.053 18.2335 103.812 18.2335 102.28C18.2335 100.748 16.9904 99.5066 15.457 99.5066C13.9236 99.5066 12.6805 100.748 12.6805 102.28C12.6805 103.812 13.9236 105.053 15.457 105.053Z"></path>
<path fill="#E6E6E6" d="M29.5116 105.053C31.045 105.053 32.288 103.812 32.288 102.28C32.288 100.748 31.045 99.5066 29.5116 99.5066C27.9782 99.5066 26.7351 100.748 26.7351 102.28C26.7351 103.812 27.9782 105.053 29.5116 105.053Z"></path>
<path fill="#E6E6E6" d="M43.5661 105.053C45.0995 105.053 46.3425 103.812 46.3425 102.28C46.3425 100.748 45.0995 99.5066 43.5661 99.5066C42.0327 99.5066 40.7896 100.748 40.7896 102.28C40.7896 103.812 42.0327 105.053 43.5661 105.053Z"></path>
<path fill="#E6E6E6" d="M57.6206 105.053C59.154 105.053 60.3971 103.812 60.3971 102.28C60.3971 100.748 59.154 99.5066 57.6206 99.5066C56.0872 99.5066 54.8441 100.748 54.8441 102.28C54.8441 103.812 56.0872 105.053 57.6206 105.053Z"></path>
<path fill="#E6E6E6" d="M71.6751 105.053C73.2085 105.053 74.4516 103.812 74.4516 102.28C74.4516 100.748 73.2085 99.5066 71.6751 99.5066C70.1417 99.5066 68.8986 100.748 68.8986 102.28C68.8986 103.812 70.1417 105.053 71.6751 105.053Z"></path>
<path fill="#E6E6E6" d="M85.7296 105.053C87.263 105.053 88.5061 103.812 88.5061 102.28C88.5061 100.748 87.263 99.5066 85.7296 99.5066C84.1962 99.5066 82.9532 100.748 82.9532 102.28C82.9532 103.812 84.1962 105.053 85.7296 105.053Z"></path>
<path fill="#E6E6E6" d="M99.7841 105.053C101.318 105.053 102.561 103.812 102.561 102.28C102.561 100.748 101.318 99.5066 99.7841 99.5066C98.2507 99.5066 97.0077 100.748 97.0077 102.28C97.0077 103.812 98.2507 105.053 99.7841 105.053Z"></path>
<path fill="#E6E6E6" d="M113.839 105.053C115.372 105.053 116.615 103.812 116.615 102.28C116.615 100.748 115.372 99.5066 113.839 99.5066C112.305 99.5066 111.062 100.748 111.062 102.28C111.062 103.812 112.305 105.053 113.839 105.053Z"></path>
<path fill="#E6E6E6" d="M127.893 105.053C129.427 105.053 130.67 103.812 130.67 102.28C130.67 100.748 129.427 99.5066 127.893 99.5066C126.36 99.5066 125.117 100.748 125.117 102.28C125.117 103.812 126.36 105.053 127.893 105.053Z"></path>
<path fill="#E6E6E6" d="M141.948 105.053C143.481 105.053 144.724 103.812 144.724 102.28C144.724 100.748 143.481 99.5066 141.948 99.5066C140.414 99.5066 139.171 100.748 139.171 102.28C139.171 103.812 140.414 105.053 141.948 105.053Z"></path>
<path fill="#E6E6E6" d="M15.457 119.269C16.9904 119.269 18.2335 118.027 18.2335 116.495C18.2335 114.963 16.9904 113.722 15.457 113.722C13.9236 113.722 12.6805 114.963 12.6805 116.495C12.6805 118.027 13.9236 119.269 15.457 119.269Z"></path>
<path fill="#E6E6E6" d="M29.5116 119.269C31.045 119.269 32.288 118.027 32.288 116.495C32.288 114.963 31.045 113.722 29.5116 113.722C27.9782 113.722 26.7351 114.963 26.7351 116.495C26.7351 118.027 27.9782 119.269 29.5116 119.269Z"></path>
<path fill="#E6E6E6" d="M43.5661 119.269C45.0995 119.269 46.3425 118.027 46.3425 116.495C46.3425 114.963 45.0995 113.722 43.5661 113.722C42.0327 113.722 40.7896 114.963 40.7896 116.495C40.7896 118.027 42.0327 119.269 43.5661 119.269Z"></path>
<path fill="#E6E6E6" d="M57.6206 119.269C59.154 119.269 60.3971 118.027 60.3971 116.495C60.3971 114.963 59.154 113.722 57.6206 113.722C56.0872 113.722 54.8441 114.963 54.8441 116.495C54.8441 118.027 56.0872 119.269 57.6206 119.269Z"></path>
<path fill="#E6E6E6" d="M71.6751 119.269C73.2085 119.269 74.4516 118.027 74.4516 116.495C74.4516 114.963 73.2085 113.722 71.6751 113.722C70.1417 113.722 68.8986 114.963 68.8986 116.495C68.8986 118.027 70.1417 119.269 71.6751 119.269Z"></path>
<path fill="#E6E6E6" d="M85.7296 119.269C87.263 119.269 88.5061 118.027 88.5061 116.495C88.5061 114.963 87.263 113.722 85.7296 113.722C84.1962 113.722 82.9532 114.963 82.9532 116.495C82.9532 118.027 84.1962 119.269 85.7296 119.269Z"></path>
<path fill="#E6E6E6" d="M99.7841 119.269C101.318 119.269 102.561 118.027 102.561 116.495C102.561 114.963 101.318 113.722 99.7841 113.722C98.2507 113.722 97.0077 114.963 97.0077 116.495C97.0077 118.027 98.2507 119.269 99.7841 119.269Z"></path>
<path fill="#E6E6E6" d="M113.839 119.269C115.372 119.269 116.615 118.027 116.615 116.495C116.615 114.963 115.372 113.722 113.839 113.722C112.305 113.722 111.062 114.963 111.062 116.495C111.062 118.027 112.305 119.269 113.839 119.269Z"></path>
<path fill="#E6E6E6" d="M127.893 119.269C129.427 119.269 130.67 118.027 130.67 116.495C130.67 114.963 129.427 113.722 127.893 113.722C126.36 113.722 125.117 114.963 125.117 116.495C125.117 118.027 126.36 119.269 127.893 119.269Z"></path>
<path fill="#E6E6E6" d="M141.948 119.269C143.481 119.269 144.724 118.027 144.724 116.495C144.724 114.963 143.481 113.722 141.948 113.722C140.414 113.722 139.171 114.963 139.171 116.495C139.171 118.027 140.414 119.269 141.948 119.269Z"></path>
<path fill="#E6E6E6" d="M15.457 133.484C16.9904 133.484 18.2335 132.242 18.2335 130.71C18.2335 129.179 16.9904 127.937 15.457 127.937C13.9236 127.937 12.6805 129.179 12.6805 130.71C12.6805 132.242 13.9236 133.484 15.457 133.484Z"></path>
<path fill="#E6E6E6" d="M29.5116 133.484C31.045 133.484 32.288 132.242 32.288 130.71C32.288 129.179 31.045 127.937 29.5116 127.937C27.9782 127.937 26.7351 129.179 26.7351 130.71C26.7351 132.242 27.9782 133.484 29.5116 133.484Z"></path>
<path fill="#E6E6E6" d="M43.5661 133.484C45.0995 133.484 46.3425 132.242 46.3425 130.71C46.3425 129.179 45.0995 127.937 43.5661 127.937C42.0327 127.937 40.7896 129.179 40.7896 130.71C40.7896 132.242 42.0327 133.484 43.5661 133.484Z"></path>
<path fill="#E6E6E6" d="M57.6206 133.484C59.154 133.484 60.3971 132.242 60.3971 130.71C60.3971 129.179 59.154 127.937 57.6206 127.937C56.0872 127.937 54.8441 129.179 54.8441 130.71C54.8441 132.242 56.0872 133.484 57.6206 133.484Z"></path>
<path fill="#E6E6E6" d="M71.6751 133.484C73.2085 133.484 74.4516 132.242 74.4516 130.71C74.4516 129.179 73.2085 127.937 71.6751 127.937C70.1417 127.937 68.8986 129.179 68.8986 130.71C68.8986 132.242 70.1417 133.484 71.6751 133.484Z"></path>
<path fill="#E6E6E6" d="M85.7296 133.484C87.263 133.484 88.5061 132.242 88.5061 130.71C88.5061 129.179 87.263 127.937 85.7296 127.937C84.1962 127.937 82.9532 129.179 82.9532 130.71C82.9532 132.242 84.1962 133.484 85.7296 133.484Z"></path>
<path fill="#E6E6E6" d="M99.7841 133.484C101.318 133.484 102.561 132.242 102.561 130.71C102.561 129.179 101.318 127.937 99.7841 127.937C98.2507 127.937 97.0077 129.179 97.0077 130.71C97.0077 132.242 98.2507 133.484 99.7841 133.484Z"></path>
<path fill="#E6E6E6" d="M113.839 133.484C115.372 133.484 116.615 132.242 116.615 130.71C116.615 129.179 115.372 127.937 113.839 127.937C112.305 127.937 111.062 129.179 111.062 130.71C111.062 132.242 112.305 133.484 113.839 133.484Z"></path>
<path fill="#E6E6E6" d="M127.893 133.484C129.427 133.484 130.67 132.242 130.67 130.71C130.67 129.179 129.427 127.937 127.893 127.937C126.36 127.937 125.117 129.179 125.117 130.71C125.117 132.242 126.36 133.484 127.893 133.484Z"></path>
<path fill="#E6E6E6" d="M141.948 133.484C143.481 133.484 144.724 132.242 144.724 130.71C144.724 129.179 143.481 127.937 141.948 127.937C140.414 127.937 139.171 129.179 139.171 130.71C139.171 132.242 140.414 133.484 141.948 133.484Z"></path>
<path fill="#3F3D56" d="M115.411 110.058L148.363 52.3799H82.4233L49.4361 109.452L82.4233 166.525H148.398L181.324 109.559L115.411 110.058Z"></path>
<path fill="#6C82FF" d="M189.508 104.715L189.57 104.608L156.582 47.5354H156.547L123.595 105.214L189.508 104.715Z"></path>
<path fill="#3F3D56" d="M257.806 49.8774C257.269 49.2501 257 48.3318 257 47.1223C257 45.9242 257.269 45.0114 257.806 44.3839C258.083 44.0691 258.428 43.8209 258.814 43.6579C259.201 43.495 259.619 43.4215 260.038 43.4429C260.461 43.4209 260.883 43.494 261.274 43.6569C261.665 43.8197 262.014 44.0682 262.296 44.3839C262.839 45.0113 263.111 45.9241 263.111 47.1223C263.111 48.3319 262.839 49.2503 262.296 49.8774C262.014 50.1932 261.665 50.4417 261.274 50.6046C260.884 50.7675 260.461 50.8406 260.038 50.8186C259.619 50.84 259.201 50.7665 258.814 50.6035C258.428 50.4405 258.083 50.1923 257.806 49.8774ZM261.006 48.9026C261.248 48.3419 261.353 47.7316 261.312 47.1223C261.351 46.5205 261.244 45.918 260.997 45.3673C260.906 45.194 260.768 45.0502 260.598 44.9526C260.428 44.8551 260.234 44.8078 260.038 44.8163C259.846 44.8088 259.656 44.8568 259.49 44.9545C259.325 45.0523 259.191 45.1956 259.105 45.3673C258.865 45.9198 258.76 46.5214 258.799 47.1223C258.759 47.7287 258.864 48.336 259.105 48.894C259.191 49.0658 259.325 49.2092 259.49 49.307C259.656 49.4047 259.846 49.4527 260.038 49.4451C260.235 49.4564 260.43 49.4113 260.602 49.3151C260.773 49.219 260.913 49.0758 261.006 48.9026ZM259.92 55.6847L266.913 43.6125H268.797L261.787 55.6847H259.92ZM266.412 54.8624C265.874 54.235 265.606 53.3109 265.606 52.0901C265.606 50.8922 265.875 49.9822 266.412 49.3603C266.707 49.0647 267.058 48.8302 267.444 48.6702C267.83 48.5102 268.244 48.4279 268.661 48.4279C269.079 48.4279 269.493 48.5102 269.879 48.6702C270.265 48.8302 270.615 49.0647 270.91 49.3603C271.448 49.9821 271.716 50.8977 271.717 52.1071C271.717 53.3167 271.448 54.2352 270.91 54.8624C270.617 55.1604 270.267 55.3971 269.881 55.5586C269.494 55.7202 269.08 55.8034 268.661 55.8034C268.243 55.8034 267.828 55.7202 267.442 55.5586C267.056 55.3971 266.706 55.1604 266.412 54.8624ZM269.612 53.879C269.852 53.3209 269.957 52.7136 269.917 52.1071C269.957 51.5054 269.849 50.903 269.603 50.3523C269.508 50.185 269.371 50.0458 269.205 49.949C269.038 49.8522 268.849 49.8011 268.657 49.8011C268.464 49.8011 268.275 49.8522 268.109 49.949C267.943 50.0458 267.805 50.185 267.711 50.3523C267.471 50.9047 267.366 51.5063 267.405 52.1071C267.365 52.7136 267.47 53.3208 267.711 53.879C267.806 54.0463 267.945 54.1855 268.112 54.2822C268.279 54.379 268.468 54.43 268.661 54.43C268.854 54.43 269.044 54.379 269.211 54.2822C269.377 54.1855 269.516 54.0463 269.612 53.879Z"></path>
<path fill="#3F3D56" d="M0.806317 154.014C0.268772 153.387 0 152.468 0 151.259C0 150.061 0.268772 149.148 0.806317 148.52C1.08321 148.205 1.4278 147.957 1.81431 147.794C2.20081 147.631 2.61921 147.558 3.03819 147.579C3.46106 147.557 3.8835 147.63 4.2743 147.793C4.66511 147.956 5.0143 148.205 5.29611 148.52C5.83898 149.148 6.11052 150.061 6.11072 151.259C6.11072 152.468 5.83918 153.387 5.29611 154.014C5.01433 154.33 4.66514 154.578 4.27434 154.741C3.88353 154.904 3.46108 154.977 3.03819 154.955C2.6192 154.976 2.20078 154.903 1.81427 154.74C1.42776 154.577 1.08317 154.329 0.806317 154.014ZM4.00613 153.039C4.24837 152.478 4.3531 151.868 4.3116 151.259C4.35148 150.657 4.24357 150.054 3.99725 149.504C3.90622 149.33 3.76769 149.187 3.59786 149.089C3.42804 148.991 3.23392 148.944 3.03819 148.953C2.84606 148.945 2.65584 148.993 2.49032 149.091C2.32479 149.189 2.19097 149.332 2.10489 149.504C1.86488 150.056 1.76007 150.658 1.79912 151.259C1.75917 151.865 1.86396 152.472 2.10489 153.03C2.19089 153.202 2.32468 153.346 2.49022 153.443C2.65577 153.541 2.84603 153.589 3.03819 153.582C3.23454 153.593 3.43001 153.548 3.60152 153.452C3.77303 153.355 3.91342 153.212 4.00613 153.039ZM2.91979 159.821L9.91289 147.749H11.797L4.78668 159.821H2.91979ZM9.41234 158.999C8.87451 158.371 8.60573 157.447 8.60602 156.226C8.60602 155.029 8.8748 154.119 9.41234 153.497C9.70739 153.201 10.0579 152.967 10.4439 152.807C10.8298 152.647 11.2435 152.564 11.6614 152.564C12.0792 152.564 12.493 152.647 12.8789 152.807C13.2648 152.967 13.6154 153.201 13.9104 153.497C14.4477 154.118 14.7164 155.034 14.7167 156.243C14.7167 157.453 14.448 158.372 13.9104 158.999C13.6168 159.297 13.2667 159.533 12.8806 159.695C12.4944 159.857 12.08 159.94 11.6614 159.94C11.2428 159.94 10.8283 159.857 10.4422 159.695C10.0561 159.533 9.706 159.297 9.41234 158.999ZM12.6116 158.015C12.8525 157.457 12.9573 156.85 12.9173 156.243C12.9572 155.642 12.8493 155.039 12.6033 154.489C12.5085 154.321 12.3709 154.182 12.2047 154.085C12.0384 153.989 11.8494 153.938 11.6569 153.938C11.4645 153.938 11.2755 153.989 11.1092 154.085C10.943 154.182 10.8054 154.321 10.7106 154.489C10.4709 155.041 10.3661 155.643 10.4051 156.243C10.3653 156.85 10.47 157.457 10.7106 158.015C10.8064 158.183 10.9447 158.322 11.1116 158.419C11.2785 158.515 11.4681 158.566 11.6611 158.566C11.8541 158.566 12.0436 158.515 12.2106 158.419C12.3775 158.322 12.5158 158.183 12.6116 158.015Z"></path>
<path fill="#2F2E41" d="M158.246 84.5127L157.819 84.3994L167.133 49.4026H221.154V49.8437H167.472L158.246 84.5127Z"></path>
<path fill="#2F2E41" d="M225.568 54.2528C224.652 54.2528 223.756 53.9813 222.993 53.4726C222.231 52.9639 221.637 52.2408 221.286 51.3948C220.936 50.5489 220.844 49.618 221.023 48.7199C221.201 47.8219 221.643 46.9969 222.291 46.3495C222.939 45.702 223.765 45.2611 224.664 45.0824C225.563 44.9038 226.495 44.9955 227.342 45.3459C228.189 45.6963 228.913 46.2897 229.422 47.051C229.931 47.8124 230.203 48.7075 230.203 49.6231C230.202 50.8506 229.713 52.0273 228.844 52.8953C227.975 53.7632 226.797 54.2514 225.568 54.2528ZM225.568 45.4344C224.739 45.4344 223.928 45.6801 223.239 46.1403C222.549 46.6006 222.012 47.2548 221.694 48.0202C221.377 48.7856 221.294 49.6278 221.455 50.4403C221.617 51.2529 222.017 51.9992 222.603 52.585C223.19 53.1709 223.937 53.5698 224.75 53.7314C225.564 53.893 226.407 53.8101 227.173 53.493C227.939 53.176 228.594 52.6391 229.055 51.9503C229.516 51.2615 229.762 50.4516 229.762 49.6232C229.76 48.5126 229.318 47.4479 228.532 46.6626C227.746 45.8774 226.68 45.4357 225.568 45.4344Z"></path>
<path fill="#6C82FF" d="M225.568 51.3868C226.543 51.3868 227.334 50.5972 227.334 49.6231C227.334 48.6491 226.543 47.8595 225.568 47.8595C224.593 47.8595 223.803 48.6491 223.803 49.6231C223.803 50.5972 224.593 51.3868 225.568 51.3868Z"></path>
<path fill="#2F2E41" d="M90.0434 118.87L90.4703 118.983L81.1567 153.98H27.1352V153.539H80.8174L90.0434 118.87Z"></path>
<path fill="#2F2E41" d="M22.7211 149.13C23.6378 149.13 24.5339 149.401 25.296 149.91C26.0582 150.419 26.6523 151.142 27.0031 151.988C27.3539 152.834 27.4457 153.765 27.2668 154.663C27.088 155.561 26.6466 156.386 25.9984 157.033C25.3502 157.681 24.5243 158.122 23.6253 158.3C22.7262 158.479 21.7943 158.387 20.9474 158.037C20.1005 157.686 19.3767 157.093 18.8674 156.332C18.3581 155.57 18.0863 154.675 18.0863 153.76C18.0877 152.532 18.5764 151.355 19.4453 150.487C20.3142 149.619 21.4923 149.131 22.7211 149.13ZM22.7211 157.948C23.5505 157.948 24.3612 157.703 25.0508 157.242C25.7404 156.782 26.2779 156.128 26.5953 155.363C26.9127 154.597 26.9957 153.755 26.8339 152.942C26.6721 152.13 26.2727 151.383 25.6863 150.798C25.0998 150.212 24.3526 149.813 23.5392 149.651C22.7257 149.49 21.8826 149.573 21.1163 149.89C20.3501 150.207 19.6952 150.744 19.2344 151.432C18.7736 152.121 18.5277 152.931 18.5277 153.76C18.5289 154.87 18.9712 155.935 19.7573 156.72C20.5434 157.505 21.6093 157.947 22.7211 157.948Z"></path>
<path fill="#6C82FF" d="M22.7211 155.523C23.6962 155.523 24.4867 154.734 24.4867 153.76C24.4867 152.785 23.6962 151.996 22.7211 151.996C21.7459 151.996 20.9554 152.785 20.9554 153.76C20.9554 154.734 21.7459 155.523 22.7211 155.523Z"></path>
<path fill="#3F3D56" d="M235.119 55H242.778V53.4943H237.54V53.4091L239.852 50.9886C241.983 48.8352 242.591 47.8068 242.591 46.5057C242.591 44.6364 241.068 43.2045 238.875 43.2045C236.699 43.2045 235.108 44.6136 235.108 46.7386H236.784C236.778 45.4886 237.585 44.6704 238.841 44.6704C240.023 44.6704 240.92 45.3977 240.92 46.5568C240.92 47.5852 240.307 48.3239 239.057 49.6477L235.119 53.7273V55ZM248.983 55.1932C251.67 55.1932 253.244 53 253.244 49.1875C253.244 45.4034 251.648 43.2045 248.983 43.2045C246.312 43.2045 244.722 45.3977 244.716 49.1875C244.716 52.9943 246.29 55.1875 248.983 55.1932ZM248.983 53.6761C247.409 53.6761 246.46 52.0966 246.46 49.1875C246.466 46.2898 247.415 44.6932 248.983 44.6932C250.545 44.6932 251.5 46.2898 251.5 49.1875C251.5 52.0966 250.551 53.6761 248.983 53.6761Z"></path>
</svg>
